<svg width="179" height="65" viewBox="0 0 179 65" fill="none" xmlns="http://www.w3.org/2000/svg">
<g clip-path="url(#clip0_5326_31384)">
<path d="M27.75 61.1C43.05 61.1 55.45 48.61 55.45 33.21C55.45 17.81 43.05 5.32 27.75 5.32C12.45 5.32.05 17.81.05 33.21C.05 48.61 12.45 61.1 27.75 61.1Z" fill="white"/>
<path d="M31.02 10.24L32.09 10.41C32.25 10.43 32.39 10.33 32.41 10.17C32.44 10.02 32.33 9.88 32.18 9.85L31.38 9.73L31.49 9.04L32.29 9.17C32.44 9.19 32.64 9.11 32.67 8.95C32.69 8.8 32.59 8.66 32.43 8.63L31.58 8.49L31.71 7.62L32.63 7.78C32.78 7.8 32.93 7.7 32.95 7.54C32.97 7.39 32.87 7.25 32.72 7.22L31.46 7.03C31.31 7 31.17 7.11 31.15 7.26L30.79 9.92C30.77 10.07 30.87 10.21 31.02 10.24V10.24Z" fill="#023053"/>
<path d="M3.34 24.28L5.84 25.17C5.99 25.23 6.15 25.15 6.2 25.01L6.59 23.99C6.65 23.85 6.58 23.69 6.43 23.63C6.29 23.58 6.13 23.65 6.07 23.79L5.78 24.55L5.14 24.3L5.46 23.49C5.51 23.34 5.44 23.18 5.3 23.13C5.16 23.07 5 23.14 4.94 23.29L4.62 24.1L3.81 23.79L4.17 22.93C4.23 22.78 4.16 22.62 4.01 22.57C3.87 22.51 3.71 22.58 3.65 22.73L3.18 23.91C3.13 24.06 3.2 24.22 3.34 24.28Z" fill="#023053"/>
<path d="M37.32 55.18C37.15 54.74 36.66 54.52 36.22 54.69C35.78 54.87 35.57 55.37 35.74 55.81L36.46 57.83C36.51 57.98 36.72 58.05 36.86 57.99C37 57.94 37.09 57.78 37.03 57.63L36.71 56.75L37.28 56.53L37.63 57.4C37.69 57.54 37.89 57.59 38.03 57.53C38.17 57.47 38.24 57.31 38.19 57.17L37.32 55.18L37.32 55.18ZM36.51 56.23L36.26 55.6C36.2 55.45 36.27 55.28 36.42 55.22C36.57 55.16 36.75 55.23 36.81 55.39L37.05 56.02L36.51 56.23H36.51Z" fill="#023053"/>
<path d="M45.42 51.34L44.71 50.63C44.21 50.06 43.4 50.13 42.81 50.66C42.67 50.78 42.69 50.95 42.79 51.06L44.59 53.16L44.59 53.17C44.68 53.27 44.84 53.31 44.98 53.19C45.5 52.72 45.81 52.03 45.51 51.49C45.5 51.45 45.45 51.38 45.42 51.34H45.42ZM44.82 52.52L43.4 50.92C43.77 50.71 44.1 50.78 44.3 51L44.94 51.65C45.14 51.87 45.07 52.18 44.82 52.52V52.52Z" fill="#023053"/>
<path d="M29.61 58.96L28.68 59.01L28.65 58.32L29.53 58.27C29.68 58.27 29.8 58.14 29.8 57.98C29.79 57.83 29.66 57.71 29.51 57.71L28.64 57.76L28.61 56.88L29.41 56.86C29.57 56.85 29.69 56.72 29.68 56.57C29.68 56.41 29.55 56.29 29.39 56.3L28.31 56.34C28.15 56.34 28.03 56.47 28.04 56.62L28.08 59.29C28.08 59.44 28.21 59.56 28.37 59.56L29.63 59.53C29.79 59.52 29.91 59.39 29.9 59.24C29.9 59.08 29.77 58.96 29.62 58.97L29.61 58.96Z" fill="#023053"/>
<path d="M3.18 33.56C3.37 33.56 3.53 33.4 3.53 33.21C3.53 33.02 3.37 32.86 3.18 32.86C2.99 32.86 2.84 33.02 2.84 33.21C2.84 33.4 2.99 33.56 3.18 33.56Z" fill="#023053"/>
<path d="M52.46 33.56C52.65 33.56 52.81 33.4 52.81 33.21C52.81 33.02 52.65 32.86 52.46 32.86C52.27 32.86 52.12 33.02 52.12 33.21C52.12 33.4 52.27 33.56 52.46 33.56Z" fill="#023053"/>
<path d="M1.91 30.64L4.56 30.88C4.71 30.89 4.87 30.79 4.89 30.64C4.9 30.49 4.77 30.33 4.62 30.32L1.97 30.01C1.82 29.99 1.68 30.13 1.66 30.28C1.65 30.44 1.76 30.62 1.91 30.64L1.91 30.64Z" fill="#023053"/>
<path d="M16.88 12.43C16.95 12.56 17.11 12.62 17.25 12.55C17.39 12.48 17.44 12.31 17.37 12.17L16.18 9.77C16.11 9.63 15.92 9.59 15.78 9.66C15.65 9.73 15.56 9.92 15.63 10.06L16.88 12.43V12.43Z" fill="#023053"/>
<path d="M49.8 26.26C49.85 26.4 50 26.48 50.15 26.44L52.72 25.64C52.87 25.59 52.92 25.43 52.88 25.28C52.83 25.13 52.67 25.01 52.53 25.06L49.98 25.9C49.84 25.95 49.76 26.11 49.8 26.25L49.8 26.26Z" fill="#023053"/>
<path d="M22.02 10.47C22.05 10.62 22.2 10.72 22.35 10.69C22.5 10.66 22.59 10.51 22.56 10.36L22.06 8.14C22.09 7.99 22.23 7.89 22.35 7.86C22.42 7.85 22.73 7.86 22.75 7.98L23.19 10.2C23.22 10.35 23.37 10.45 23.52 10.41C23.67 10.38 23.76 10.23 23.73 10.08L23.34 7.86C23.28 7.57 23.05 7.43 22.87 7.33C22.46 7.11 22.09 7.28 21.87 7.53C21.81 7.44 21.66 7.4 21.54 7.43C21.39 7.46 21.3 7.61 21.33 7.76L22.02 10.47H22.02Z" fill="#023053"/>
<path d="M2.06 29.08L4.73 29.49C4.88 29.52 5.03 29.42 5.06 29.27C5.09 29.11 4.99 28.97 4.84 28.94L2.67 28.56C2.56 28.54 2.48 28.39 2.51 28.17C2.53 28.03 2.68 27.81 2.79 27.83L4.95 28.27C5.1 28.3 5.25 28.21 5.28 28.05C5.31 27.9 5.21 27.76 5.06 27.72L2.86 27.22C2.57 27.16 2.33 27.31 2.18 27.45C1.89 27.74 1.93 28.34 2.05 28.46C1.94 28.48 1.85 28.64 1.83 28.76C1.8 28.91 1.91 29.05 2.06 29.08L2.06 29.08Z" fill="#023053"/>
<path d="M13.51 51.35C13.39 51.26 13.21 51.28 13.12 51.4L11.44 53.48C11.35 53.6 11.38 53.8 11.5 53.9C11.62 53.99 11.82 53.98 11.92 53.86L13.55 51.75C13.65 51.63 13.63 51.45 13.51 51.35L13.51 51.35Z" fill="#023053"/>
<path d="M15.36 52.8C15.2 52.4 14.83 52.33 14.64 52.38C14.67 52.27 14.6 52.14 14.5 52.07C14.37 51.98 14.2 52.02 14.11 52.15L12.54 54.35C12.46 54.47 12.5 54.66 12.63 54.75C12.75 54.83 12.95 54.83 13.04 54.7L14.29 52.88C14.39 52.8 14.57 52.85 14.68 52.92C14.77 52.98 14.86 53.15 14.79 53.24L13.61 55.07C13.53 55.2 13.56 55.39 13.73 55.49C13.87 55.57 14.04 55.53 14.12 55.4L15.26 53.54C15.42 53.29 15.43 52.99 15.36 52.8L15.36 52.8Z" fill="#023053"/>
<path d="M39.51 53.99C39.37 53.73 39.09 53.6 38.89 53.6C38.48 53.58 38.25 53.8 38.2 54.05C38.13 53.9 37.95 53.9 37.85 53.95C37.71 54.02 37.66 54.19 37.73 54.33L38.91 56.8C38.98 56.94 39.14 56.99 39.28 56.92C39.42 56.85 39.52 56.65 39.45 56.51L38.45 54.53C38.44 54.41 38.49 54.28 38.62 54.21C38.77 54.14 38.93 54.1 38.99 54.2L40.05 56.19C40.12 56.33 40.31 56.37 40.44 56.29C40.58 56.22 40.65 56.05 40.58 55.91L39.5 53.99H39.51Z" fill="#023053"/>
<path d="M52.77 40.17L50.66 39.59C50.38 39.49 50.12 39.63 49.97 39.76C49.64 40.04 49.53 40.4 49.64 40.71C49.53 40.72 49.43 40.79 49.4 40.9C49.35 41.05 49.43 41.21 49.58 41.26L52.11 42.18C52.26 42.23 52.41 42.15 52.46 42C52.51 41.86 52.45 41.65 52.3 41.6L50.23 40.88C50.2 40.73 50.12 40.55 50.16 40.43C50.19 40.3 50.36 40.08 50.55 40.13L52.59 40.74C52.73 40.79 52.9 40.67 52.94 40.52C52.99 40.38 52.91 40.22 52.76 40.17L52.77 40.17Z" fill="#023053"/>
<path d="M53.45 28.89L50.82 29.32C50.67 29.34 50.56 29.48 50.59 29.63C50.61 29.78 50.75 29.89 50.9 29.87L53.02 29.52C53.13 29.57 53.25 29.78 53.27 29.91C53.28 29.98 53.26 30.43 53.15 30.45L51.01 30.67C50.86 30.69 50.75 30.83 50.78 30.98C50.8 31.14 50.94 31.24 51.09 31.22L53.23 31.02C53.52 30.98 53.76 30.73 53.82 30.5C53.94 30.06 53.83 29.57 53.59 29.42C53.73 29.39 53.78 29.25 53.76 29.13C53.74 28.98 53.6 28.87 53.45 28.89H53.45Z" fill="#023053"/>
<path d="M26.42 10.03C26.58 10.03 26.69 9.89 26.69 9.74L26.64 8.73C26.73 8.76 26.83 8.78 26.93 8.77C27.39 8.75 27.75 8.36 27.73 7.89L27.72 7.57C27.7 7.1 27.27 6.71 26.81 6.73L26.23 6.8C26.08 6.81 25.96 6.94 25.97 7.09L26.13 9.76C26.14 9.92 26.27 10.04 26.42 10.03L26.42 10.03ZM26.6 7.58C26.59 7.42 26.71 7.29 26.86 7.28C27.02 7.27 27.15 7.4 27.16 7.55L27.18 7.96C27.18 8.11 27.06 8.25 26.91 8.25C26.75 8.26 26.62 8.14 26.62 7.98C26.62 7.96 26.61 7.9 26.61 7.88L26.6 7.64C26.6 7.62 26.6 7.6 26.6 7.57L26.6 7.58Z" fill="#023053"/>
<path d="M4.3 21.84L6.69 23C6.83 23.07 7 23.02 7.06 22.88C7.13 22.74 7.08 22.57 6.94 22.5L6.06 22.05L6.18 21.82L6.19 21.8C6.26 21.73 6.36 21.7 6.45 21.75L6.93 21.97C7.14 22.08 7.49 22.04 7.78 21.94C8.11 21.83 7.98 21.36 7.66 21.4C7.63 21.4 7.59 21.41 7.56 21.42C7.36 21.48 7.2 21.45 7.18 21.44L6.7 21.25C6.53 21.16 6.38 21.15 6.25 21.17C6.15 20.92 5.9 20.72 5.54 20.54C5.09 20.3 4.58 20.56 4.42 20.88C4.36 21.01 4.25 21.25 4.28 21.35C4.24 21.37 4.21 21.41 4.18 21.46C4.11 21.6 4.17 21.77 4.3 21.83L4.3 21.84ZM4.91 21.14C4.96 21.05 5.14 20.96 5.29 21.03C5.57 21.18 5.68 21.28 5.71 21.35C5.73 21.38 5.74 21.41 5.71 21.49C5.67 21.55 5.63 21.61 5.61 21.65C5.54 21.71 5.44 21.73 5.33 21.67L4.96 21.48C4.87 21.44 4.85 21.26 4.91 21.13V21.14Z" fill="#023053"/>
<path d="M13.4 11.48C13.41 11.51 13.43 11.54 13.45 11.56L14.81 13.62C14.89 13.75 15.06 13.79 15.2 13.71C15.33 13.63 15.36 13.45 15.28 13.32L14.76 12.48L14.98 12.34L15 12.32C15.09 12.31 15.21 12.31 15.26 12.4L15.57 12.8C15.69 13 16 13.19 16.3 13.26C16.64 13.34 16.77 12.86 16.49 12.73C16.45 12.71 16.42 12.7 16.38 12.7C16.18 12.64 16.06 12.54 16.04 12.52L15.71 12.12C15.61 11.96 15.49 11.87 15.36 11.82C15.41 11.55 15.29 11.25 15.08 10.91C14.81 10.47 14.26 10.45 13.95 10.62C13.75 10.74 13.74 10.85 13.66 10.96C13.61 10.96 13.53 10.95 13.44 11.01C13.31 11.09 13.27 11.26 13.35 11.39L13.4 11.48ZM14.24 11.1C14.32 11.05 14.52 11.07 14.61 11.21C14.78 11.48 14.82 11.63 14.82 11.7C14.82 11.73 14.81 11.77 14.74 11.83C14.67 11.85 14.61 11.88 14.57 11.91C14.48 11.92 14.39 11.89 14.32 11.78L14.1 11.43C14.05 11.34 14.12 11.18 14.24 11.1L14.24 11.1Z" fill="#023053"/>
<path d="M28.56 10.01C28.72 10.02 28.85 9.9 28.86 9.75L28.91 8.75L29.17 8.76H29.19C29.28 8.81 29.35 8.88 29.34 8.98L29.31 9.5C29.3 9.73 29.45 10.05 29.66 10.29C29.89 10.55 30.27 10.23 30.11 9.96C30.09 9.93 30.07 9.9 30.04 9.87C29.91 9.71 29.87 9.55 29.87 9.53L29.89 9.01C29.9 8.82 29.86 8.67 29.78 8.56C29.97 8.37 30.05 8.05 30.07 7.66C30.1 7.14 29.67 6.76 29.31 6.74C29.16 6.74 29.03 6.79 28.94 6.86C28.93 6.8 28.7 6.75 28.65 6.74C28.5 6.74 28.37 6.86 28.36 7.01L28.35 7.11C28.35 7.14 28.3 9.71 28.3 9.71C28.29 9.86 28.41 10 28.56 10.01ZM28.97 7.51C28.98 7.4 29.13 7.32 29.27 7.32C29.36 7.33 29.52 7.46 29.52 7.62C29.5 7.94 29.45 8.09 29.4 8.15C29.39 8.17 29.36 8.2 29.27 8.2C29.2 8.18 29.14 8.18 29.08 8.17C29 8.13 28.95 8.05 28.95 7.92L28.97 7.51Z" fill="#023053"/>
<path d="M13 14.99C13.1 15.11 13.27 15.14 13.39 15.04L14.25 14.37C14.37 14.27 14.39 14.1 14.3 13.97C14.2 13.85 14.03 13.83 13.91 13.93L13.27 14.43L12.84 13.88L13.54 13.33C13.67 13.24 13.69 13.06 13.59 12.94C13.5 12.82 13.32 12.8 13.2 12.89L12.5 13.43L11.97 12.75L12.72 12.2C12.84 12.1 12.86 11.93 12.77 11.8C12.67 11.68 12.5 11.66 12.38 11.76L11.39 12.53C11.27 12.62 11.24 12.8 11.34 12.92L13 14.99V14.99Z" fill="#023053"/>
<path d="M7.05 18.19L8.84 19.47C8.96 19.57 9.14 19.54 9.23 19.42C9.32 19.3 9.3 19.12 9.18 19.03L8.41 18.44L8.77 17.97L9.54 18.56C9.66 18.65 9.83 18.63 9.93 18.51C10.02 18.39 10 18.21 9.88 18.12L8.2 16.71C7.82 16.42 7.23 16.55 6.94 16.93C6.65 17.31 6.69 17.91 7.06 18.19H7.05ZM7.38 17.27C7.48 17.14 7.69 17.08 7.82 17.18L8.35 17.61L7.97 18.09L7.43 17.7C7.3 17.6 7.28 17.4 7.38 17.27Z" fill="#023053"/>
<path d="M39.51 13.26C39.64 13.35 39.81 13.31 39.89 13.17L40.41 12.35L40.9 12.66L40.39 13.49C40.31 13.62 40.35 13.79 40.48 13.87C40.61 13.96 40.78 13.92 40.86 13.79L42.09 11.96C42.34 11.56 42.22 11.03 41.76 10.73C41.3 10.43 40.77 10.56 40.53 10.96L39.42 12.88C39.34 13.01 39.38 13.18 39.51 13.27L39.51 13.26ZM41.05 11.28C41.14 11.14 41.32 11.12 41.46 11.2C41.6 11.29 41.65 11.48 41.57 11.62L41.22 12.19L40.7 11.87L41.06 11.28H41.05Z" fill="#023053"/>
<path d="M19.76 11.11C19.81 11.25 19.97 11.33 20.12 11.29C20.26 11.24 20.34 11.08 20.29 10.93L19.99 10.01L20.55 9.82L20.85 10.75C20.9 10.9 21.06 10.98 21.2 10.93C21.35 10.88 21.43 10.72 21.38 10.58L20.79 8.45C20.64 8 20.17 7.78 19.64 7.96C19.08 8.15 18.88 8.57 19.02 9.02L19.76 11.11ZM19.81 8.49C19.97 8.44 20.15 8.47 20.2 8.62L20.38 9.29L19.82 9.47L19.61 8.83C19.56 8.67 19.66 8.54 19.81 8.49V8.49Z" fill="#023053"/>
<path d="M48.3 22.13C48.16 22.2 48.11 22.36 48.18 22.5C48.24 22.64 48.41 22.7 48.55 22.63L49.38 22.18L49.65 22.73L48.77 23.14C48.63 23.21 48.57 23.38 48.64 23.52C48.71 23.66 48.87 23.71 49.01 23.64L51.01 22.7C51.43 22.5 51.59 21.95 51.38 21.53C51.17 21.1 50.66 20.89 50.24 21.1L48.3 22.12L48.3 22.13ZM50.88 21.78C50.95 21.93 50.91 22.14 50.77 22.21L50.15 22.49L49.88 21.94L50.49 21.62C50.64 21.55 50.81 21.63 50.88 21.78H50.88Z" fill="#023053"/>
<path d="M51.46 23.2L51.61 23.59L49.39 24.48C49.25 24.54 49.18 24.7 49.23 24.85C49.29 24.99 49.45 25.06 49.59 25.01L51.83 24.16L51.98 24.55C52.04 24.69 52.2 24.77 52.34 24.71C52.48 24.65 52.55 24.49 52.5 24.35L51.99 23C51.93 22.86 51.77 22.79 51.63 22.84C51.48 22.9 51.41 23.06 51.47 23.2L51.46 23.2Z" fill="#023053"/>
<path d="M2.58 26.72C2.73 26.76 2.88 26.68 2.93 26.53L3.06 26.12L5.35 26.77C5.5 26.81 5.65 26.72 5.69 26.58C5.73 26.43 5.65 26.27 5.5 26.23L3.24 25.51L3.36 25.09C3.4 24.94 3.31 24.79 3.17 24.74C3.02 24.7 2.86 24.79 2.82 24.93L2.39 26.38C2.35 26.52 2.43 26.68 2.58 26.72Z" fill="#023053"/>
<path d="M41.85 13.61L41.75 13.73C41.6 13.93 41.27 14.56 41.85 15.01C42.45 15.49 43.03 15.05 43.24 14.78C43.54 14.4 43.42 13.97 43.31 13.72C43.14 13.31 42.92 13.15 43.22 12.77C43.26 12.72 43.41 12.62 43.59 12.75C43.76 12.89 43.75 13.06 43.71 13.16C43.57 13.5 44.08 13.71 44.22 13.37C44.33 13.11 44.35 12.64 43.93 12.32C43.55 12.02 43.07 12.06 42.78 12.43C42.33 13.01 42.59 13.31 42.86 13.93C42.91 14.1 42.91 14.3 42.8 14.44C42.65 14.63 42.41 14.74 42.19 14.57C42.02 14.44 42.07 14.23 42.19 14.07L42.29 13.95C42.51 13.66 42.08 13.31 41.85 13.61H41.85Z" fill="#023053"/>
<path d="M35.76 11.58C36.47 11.84 36.9 11.25 37.01 10.94C37.19 10.48 36.95 10.11 36.77 9.9C36.48 9.57 36.23 9.48 36.39 9.03C36.42 8.96 36.53 8.82 36.74 8.9C36.94 8.97 36.98 9.14 36.97 9.25C36.95 9.62 37.5 9.66 37.53 9.29C37.55 9.01 37.43 8.56 36.93 8.37C36.49 8.2 36.04 8.39 35.87 8.83C35.62 9.52 35.95 9.73 36.39 10.23C36.49 10.38 36.55 10.57 36.49 10.74C36.41 10.97 36.21 11.15 35.95 11.05C35.75 10.98 35.73 10.77 35.8 10.58L35.86 10.43C35.99 10.08 35.47 9.88 35.34 10.23L35.28 10.38C35.19 10.61 35.07 11.32 35.75 11.58H35.76Z" fill="#023053"/>
<path d="M33.66 10.9C34.4 11.1 34.77 10.46 34.85 10.14C34.98 9.67 34.71 9.33 34.51 9.13C34.19 8.83 33.93 8.77 34.06 8.3C34.07 8.23 34.17 8.08 34.39 8.14C34.6 8.19 34.65 8.36 34.66 8.46C34.66 8.83 35.22 8.83 35.21 8.45C35.21 8.18 35.05 7.74 34.53 7.6C34.07 7.47 33.64 7.7 33.52 8.16C33.33 8.87 33.69 9.04 34.17 9.5C34.28 9.64 34.36 9.82 34.32 10C34.25 10.23 34.07 10.43 33.81 10.36C33.6 10.3 33.56 10.1 33.61 9.9L33.65 9.75C33.75 9.39 33.21 9.24 33.12 9.6L33.08 9.75C33.01 10 32.96 10.71 33.66 10.9Z" fill="#023053"/>
<path d="M10.43 17.5C10.53 17.61 10.71 17.61 10.82 17.5C10.93 17.39 10.93 17.21 10.82 17.1L9.29 15.65C9.18 15.53 9.17 15.35 9.29 15.24C9.4 15.12 9.63 15.08 9.75 15.19C9.76 15.21 9.78 15.22 9.79 15.23L11.24 16.68C11.35 16.79 11.52 16.79 11.63 16.68C11.74 16.57 11.74 16.4 11.63 16.29L10.19 14.76C10.07 14.65 10.08 14.45 10.19 14.34C10.31 14.22 10.51 14.2 10.63 14.31C10.64 14.33 10.66 14.34 10.67 14.35L12.05 15.87C12.16 15.98 12.33 15.98 12.44 15.87C12.55 15.76 12.57 15.54 12.47 15.43L11.07 13.81C10.74 13.51 10.12 13.52 9.8 13.85C9.64 14.01 9.55 14.31 9.54 14.51C9.33 14.52 9.07 14.58 8.92 14.74C8.82 14.83 8.75 15.08 8.71 15.19C8.65 15.18 8.53 15.15 8.43 15.25C8.32 15.36 8.34 15.59 8.45 15.7L10.43 17.5L10.43 17.5Z" fill="#023053"/>
<path d="M16.96 9.91L17.66 11.43C17.85 11.86 18.34 12.05 18.77 11.87C19.19 11.68 19.38 11.18 19.2 10.76C19.05 10.42 18.54 10.64 18.69 10.98C18.75 11.13 18.69 11.29 18.54 11.35C18.4 11.41 18.24 11.35 18.17 11.2L17.53 9.72C17.53 9.7 17.52 9.68 17.51 9.66C17.45 9.51 17.51 9.35 17.65 9.29C17.8 9.23 17.99 9.29 18.05 9.43C18.2 9.78 18.72 9.53 18.58 9.19C18.39 8.76 17.86 8.6 17.43 8.77C16.95 8.97 16.78 9.48 16.96 9.91H16.96V9.91Z" fill="#023053"/>
<path d="M52.45 26.58L50.82 27.01C50.36 27.11 50.07 27.57 50.18 28.03C50.28 28.5 50.74 28.78 51.2 28.68L52.87 28.35C53.33 28.24 53.59 27.7 53.48 27.24C53.37 26.78 52.9 26.47 52.45 26.58ZM52.94 27.39C52.98 27.55 52.9 27.77 52.75 27.8L51.07 28.13C50.92 28.17 50.76 28.07 50.72 27.91C50.68 27.75 50.78 27.59 50.94 27.55L52.57 27.12C52.73 27.08 52.9 27.23 52.94 27.39H52.94Z" fill="#023053"/>
<path d="M35.36 57.7C35.4 57.86 35.28 58.01 35.13 58.05C34.98 58.09 34.83 58.01 34.78 57.86L34.33 56.31C34.33 56.29 34.32 56.27 34.31 56.25C34.27 56.09 34.35 55.94 34.5 55.9C34.65 55.85 34.81 55.94 34.85 56.09C34.96 56.44 35.49 56.29 35.38 55.93C35.25 55.48 34.79 55.23 34.34 55.36C33.9 55.49 33.65 55.96 33.78 56.4H33.78L34.21 58.03C34.34 58.48 34.79 58.73 35.24 58.59C35.68 58.46 36.02 57.99 35.89 57.54C35.79 57.19 35.25 57.34 35.36 57.7L35.36 57.7Z" fill="#023053"/>
<path d="M3.87 41.89C4.22 41.78 4.05 41.24 3.7 41.36C3.55 41.41 3.39 41.33 3.34 41.18C3.3 41.03 3.34 40.82 3.49 40.77L5.02 40.27C5.04 40.27 5.06 40.27 5.08 40.26C5.23 40.21 5.39 40.29 5.44 40.44C5.48 40.59 5.4 40.75 5.25 40.79C4.9 40.91 5.07 41.44 5.43 41.33C5.87 41.18 6.11 40.71 5.96 40.27C5.82 39.82 5.35 39.59 4.91 39.73V39.72L3.34 40.19C2.9 40.34 2.63 40.89 2.77 41.33C2.92 41.78 3.43 42.04 3.87 41.9L3.87 41.89Z" fill="#023053"/>
<path d="M6.44 41.89C6.39 41.75 6.23 41.68 6.09 41.73L3.62 42.71C3.47 42.76 3.41 42.99 3.46 43.13C3.52 43.28 3.7 43.33 3.84 43.27L6.29 42.25C6.43 42.2 6.5 42.03 6.45 41.89H6.44Z" fill="#023053"/>
<path d="M33.12 55.98C33.09 55.83 32.94 55.73 32.79 55.77C32.64 55.8 32.54 55.95 32.58 56.1L33.13 58.72C33.17 58.87 33.32 59.03 33.51 58.98C33.66 58.94 33.78 58.75 33.75 58.6L33.12 55.98H33.12Z" fill="#023053"/>
<path d="M52.74 37.71C52.26 37.6 51.93 37.89 51.75 38.1C51.46 38.43 51.41 38.69 50.94 38.59C50.88 38.57 50.72 38.48 50.77 38.26C50.81 38.05 50.97 37.98 51.08 37.98C51.45 37.96 51.41 37.4 51.04 37.42C50.77 37.43 50.34 37.61 50.22 38.14C50.12 38.61 50.37 39.03 50.82 39.13C51.53 39.29 51.69 38.93 52.13 38.42C52.26 38.3 52.44 38.21 52.62 38.25C52.85 38.3 53.06 38.47 53 38.75C52.95 38.95 52.75 39 52.55 38.96L52.4 38.93C52.03 38.85 51.91 39.39 52.28 39.47L52.43 39.51C52.67 39.56 53.38 39.58 53.54 38.87C53.7 38.12 53.06 37.77 52.73 37.7L52.74 37.71Z" fill="#023053"/>
<path d="M2.76 36.93C3.24 36.87 3.46 36.49 3.57 36.24C3.73 35.83 3.69 35.56 4.17 35.51C4.23 35.5 4.41 35.53 4.44 35.76C4.46 35.97 4.34 36.09 4.24 36.13C3.9 36.27 4.11 36.79 4.45 36.64C4.7 36.54 5.05 36.23 4.99 35.69C4.94 35.22 4.57 34.9 4.1 34.95C3.38 35.03 3.35 35.43 3.1 36.06C3.01 36.21 2.87 36.35 2.69 36.37C2.45 36.4 2.21 36.31 2.17 36.03C2.15 35.82 2.32 35.7 2.53 35.68L2.68 35.66C3.05 35.62 2.98 35.07 2.62 35.11L2.46 35.13C2.21 35.16 1.53 35.37 1.62 36.09C1.7 36.86 2.42 36.97 2.75 36.93L2.76 36.93Z" fill="#023053"/>
<path d="M17.07 54.35C17.2 54.43 17.37 54.38 17.44 54.24C17.52 54.11 17.47 53.94 17.34 53.86L16.08 53.16C15.95 53.09 15.78 53.14 15.71 53.27C15.63 53.41 15.68 53.58 15.81 53.65L16.2 53.87L15.04 55.97C14.97 56.11 15.02 56.28 15.16 56.36C15.29 56.43 15.5 56.41 15.57 56.28L16.69 54.14L17.07 54.35Z" fill="#023053"/>
<path d="M53.72 35.35L51.51 35.17C51.05 35.12 50.62 35.45 50.57 35.92C50.52 36.4 50.86 36.81 51.32 36.87L53.49 37.2C53.64 37.22 53.78 37.1 53.79 36.95C53.81 36.8 53.71 36.61 53.56 36.59L52.6 36.47L52.66 35.85L53.64 35.94C53.8 35.95 53.94 35.81 53.96 35.66C53.98 35.51 53.87 35.37 53.71 35.35H53.72ZM52.05 36.41L51.39 36.31C51.22 36.29 51.11 36.15 51.13 35.99C51.14 35.83 51.3 35.69 51.46 35.71L52.13 35.78L52.05 36.41Z" fill="#023053"/>
<path d="M41.48 52.82C41.22 52.42 40.7 52.31 40.3 52.57C39.9 52.83 39.8 53.36 40.05 53.76L41.25 55.61C41.34 55.74 41.51 55.78 41.64 55.69C41.76 55.61 41.8 55.44 41.72 55.31L41.19 54.49L41.68 54.17L42.21 54.99C42.29 55.11 42.47 55.15 42.59 55.07C42.72 54.98 42.76 54.81 42.67 54.68L41.48 52.82L41.48 52.82ZM40.89 54.02L40.52 53.45C40.43 53.31 40.47 53.13 40.61 53.04C40.74 52.95 40.93 52.99 41.02 53.13L41.38 53.7L40.89 54.02Z" fill="#023053"/>
<path d="M9.53 47.17C9.24 46.79 8.71 46.72 8.34 47.01L6.6 48.24C6.48 48.34 6.45 48.52 6.54 48.65C6.64 48.77 6.82 48.83 6.94 48.74L7.69 48.18L8.04 48.67L7.32 49.28C7.19 49.38 7.17 49.58 7.27 49.71C7.36 49.83 7.53 49.86 7.65 49.76L9.36 48.37C9.73 48.09 9.81 47.55 9.53 47.17V47.17ZM9.02 47.93L8.48 48.33L8.13 47.86L8.67 47.45C8.8 47.35 8.98 47.38 9.08 47.51C9.18 47.64 9.15 47.83 9.02 47.93Z" fill="#023053"/>
<path d="M22.87 55.78C22.41 55.68 21.96 55.97 21.86 56.43L21.33 58.53C21.29 58.68 21.39 58.83 21.54 58.86C21.69 58.89 21.87 58.85 21.9 58.7L22.14 57.76L22.71 57.89L22.53 58.85C22.5 59 22.63 59.11 22.78 59.15C22.93 59.18 23.1 59.1 23.14 58.95L23.52 56.8C23.62 56.34 23.33 55.88 22.87 55.78V55.78ZM22.97 56.68L22.83 57.34L22.26 57.22L22.4 56.55C22.44 56.39 22.6 56.29 22.75 56.33C22.91 56.36 23.01 56.52 22.98 56.68L22.97 56.68Z" fill="#023053"/>
<path d="M3.17 39.54L4.7 39.13C5.16 39.03 5.45 38.57 5.34 38.11C5.24 37.65 4.79 37.36 4.33 37.46L2.78 37.76C2.32 37.86 2.02 38.37 2.12 38.84C2.23 39.3 2.71 39.65 3.17 39.54V39.54ZM2.66 38.71C2.63 38.55 2.75 38.36 2.91 38.33L4.45 38C4.61 37.97 4.77 38.07 4.8 38.23C4.84 38.39 4.74 38.55 4.58 38.59L3.04 38.98C2.88 39.01 2.7 38.88 2.67 38.71H2.66Z" fill="#023053"/>
<path d="M18.84 55.17C18.98 55.23 19.14 55.17 19.2 55.02C19.26 54.88 19.2 54.72 19.06 54.65L18.07 54.21C17.93 54.15 17.76 54.21 17.7 54.35L16.55 56.76C16.49 56.91 16.55 57.07 16.69 57.13L17.81 57.64C17.95 57.7 18.12 57.64 18.18 57.5C18.24 57.36 18.18 57.19 18.04 57.13L17.24 56.78L17.52 56.15L18.3 56.47C18.44 56.53 18.6 56.47 18.66 56.33C18.72 56.19 18.66 56.02 18.52 55.96L17.74 55.63L18.1 54.83L18.83 55.17H18.84Z" fill="#023053"/>
<path d="M4.66 44.45L5.28 44.14L5.66 44.92C5.73 45.06 5.89 45.12 6.03 45.05C6.17 44.98 6.22 44.81 6.16 44.68L5.78 43.9L6.56 43.51L6.91 44.25C6.98 44.39 7.15 44.44 7.28 44.37C7.42 44.31 7.48 44.14 7.41 44L6.93 43.02C6.87 42.88 6.7 42.82 6.56 42.89L4.15 44.01C4.01 44.07 3.95 44.24 4.02 44.38L4.58 45.52C4.65 45.66 4.81 45.72 4.95 45.65C5.09 45.58 5.15 45.42 5.08 45.28L4.66 44.45L4.66 44.45Z" fill="#023053"/>
<path d="M51.86 42.91C51.72 42.85 51.56 42.91 51.5 43.05L51.12 43.87L50.49 43.58L50.84 42.8C50.9 42.66 50.84 42.5 50.7 42.44C50.56 42.37 50.4 42.44 50.33 42.58L49.98 43.35L49.19 43L49.52 42.26C49.58 42.11 49.52 41.95 49.38 41.89C49.23 41.82 49.07 41.89 49.01 42.03L48.57 43.03C48.51 43.17 48.57 43.33 48.71 43.4L51.11 44.57C51.25 44.63 51.42 44.57 51.48 44.42L52.01 43.28C52.07 43.14 52.01 42.98 51.87 42.91L51.86 42.91Z" fill="#023053"/>
<path d="M32.55 58.95C32.39 58.82 32.32 58.67 32.31 58.65L32.18 58.15C32.15 57.96 32.08 57.83 31.99 57.73C32.13 57.5 32.15 57.18 32.09 56.78C32.02 56.27 31.52 56.01 31.17 56.06C31.02 56.08 30.89 56.12 30.76 56.19C30.72 56.17 30.67 56.16 30.61 56.17C30.46 56.19 30.36 56.33 30.38 56.48L30.39 56.58C30.39 56.61 30.4 56.65 30.4 56.68L30.69 59.16C30.72 59.31 30.9 59.4 31.05 59.38C31.21 59.36 31.33 59.22 31.31 59.07L31.16 58.08L31.42 58.05L31.45 58.04C31.54 58.07 31.62 58.13 31.63 58.23L31.76 58.73C31.8 58.96 32.01 59.25 32.25 59.43C32.53 59.64 32.84 59.26 32.63 59.02C32.61 58.99 32.58 58.97 32.55 58.95ZM31.58 57.35C31.57 57.38 31.5 57.46 31.41 57.48C31.34 57.47 31.28 57.47 31.22 57.48C31.14 57.46 31.07 57.39 31.05 57.26L30.99 56.85C30.98 56.75 31.11 56.63 31.25 56.61C31.34 56.6 31.52 56.7 31.54 56.86C31.59 57.18 31.61 57.28 31.58 57.35Z" fill="#023053"/>
<path d="M50.96 45.22C50.93 45.22 50.89 45.22 50.86 45.24C50.65 45.28 50.49 45.25 50.47 45.24L49.99 45.03C49.83 44.94 49.68 44.91 49.54 44.93C49.46 44.67 49.21 44.46 48.87 44.26C48.43 44 47.91 44.23 47.73 44.55C47.66 44.68 47.61 44.81 47.58 44.95C47.54 44.98 47.51 45.01 47.48 45.06C47.4 45.19 47.45 45.36 47.58 45.44L47.66 45.49C47.69 45.51 47.72 45.52 47.75 45.53L49.91 46.87C50.04 46.95 50.21 46.9 50.29 46.77C50.37 46.63 50.32 46.46 50.19 46.38L49.31 45.8L49.44 45.57L49.45 45.55C49.53 45.49 49.62 45.47 49.71 45.52L50.2 45.72C50.4 45.84 50.75 45.85 51.05 45.77C51.39 45.68 51.28 45.19 50.96 45.22ZM48.99 45.23C48.94 45.28 48.91 45.33 48.88 45.38C48.81 45.43 48.71 45.45 48.59 45.38L48.24 45.18C48.15 45.12 48.14 44.95 48.21 44.83C48.26 44.75 48.45 44.66 48.59 44.74C48.74 44.83 48.98 44.99 49.01 45.06C49.02 45.08 49.03 45.14 48.99 45.22V45.23Z" fill="#023053"/>
<path d="M48.89 48.29L48.08 47.72C48.16 47.67 48.22 47.6 48.28 47.52C48.55 47.13 48.45 46.61 48.08 46.34L47.81 46.16C47.44 45.89 46.91 45.98 46.65 46.36L46.33 46.82C46.24 46.95 46.27 47.13 46.39 47.21L48.53 48.8C48.66 48.89 48.88 48.83 48.97 48.7C49.05 48.58 49.02 48.38 48.89 48.29ZM47.86 47.22C47.77 47.34 47.6 47.37 47.47 47.28C47.45 47.27 47.4 47.24 47.38 47.23L47.19 47.09C47.17 47.08 47.16 47.06 47.14 47.05C47.01 46.96 46.98 46.79 47.07 46.66C47.16 46.53 47.33 46.5 47.46 46.59L47.79 46.82C47.92 46.91 47.95 47.09 47.86 47.22V47.22Z" fill="#023053"/>
<path d="M20.71 55.14C20.57 55.1 20.43 55.07 20.29 55.08C20.26 55.04 20.22 55.01 20.17 55C20.02 54.95 19.86 55.03 19.82 55.18L19.79 55.27C19.77 55.3 19.76 55.33 19.76 55.36L18.91 57.7C18.86 57.84 18.95 58.04 19.09 58.09C19.24 58.14 19.45 58.12 19.49 57.98L19.83 56.94L20.08 57.04L20.1 57.04C20.17 57.11 20.22 57.2 20.18 57.29L20.09 57.82C20.02 58.04 20.08 58.39 20.23 58.67C20.38 58.98 20.83 58.77 20.74 58.47C20.74 58.43 20.72 58.4 20.7 58.37C20.61 58.18 20.62 58.02 20.62 57.99L20.71 57.46C20.77 57.28 20.77 57.13 20.72 57C20.99 56.9 21.11 56.58 21.23 56.2C21.39 55.71 21.06 55.25 20.71 55.14L20.71 55.14ZM20.7 56.03C20.6 56.33 20.58 56.46 20.52 56.5C20.5 56.52 20.4 56.54 20.31 56.52C20.25 56.48 20.18 56.45 20.13 56.43C20.06 56.37 20.03 56.27 20.07 56.15L20.21 55.77C20.24 55.67 20.41 55.63 20.54 55.67C20.63 55.7 20.75 55.87 20.7 56.03V56.03Z" fill="#023053"/>
<path d="M10.2 48.47L8.11 50.29L8.11 50.3C8.01 50.39 7.97 50.55 8.09 50.69C8.56 51.21 9.19 51.51 9.72 51.2C9.98 51 10.65 50.41 10.65 50.41C11.21 49.9 11.13 49.08 10.6 48.49C10.48 48.35 10.32 48.37 10.2 48.47L10.2 48.47ZM10.28 49.99L9.61 50.59C9.39 50.79 9.09 50.79 8.75 50.54L10.38 49.09C10.57 49.4 10.49 49.79 10.28 49.99V49.99Z" fill="#023053"/>
<path d="M7.67 46.76C8.32 46.37 8.4 45.56 7.98 44.87C7.89 44.71 7.73 44.7 7.6 44.78L5.25 46.13L5.24 46.13C5.13 46.2 5.06 46.35 5.15 46.51C5.51 47.11 6.18 47.58 6.77 47.38C6.81 47.37 7.67 46.76 7.67 46.76ZM5.86 46.49L7.63 45.41C7.77 45.81 7.64 46.13 7.38 46.28L6.74 46.69C6.49 46.85 6.14 46.8 5.85 46.49L5.86 46.49Z" fill="#023053"/>
<path d="M26.42 56.31C26.2 56.29 25.99 56.36 25.83 56.49C25.69 56.33 25.5 56.23 25.28 56.21C25.15 56.2 25.02 56.22 24.9 56.27C24.86 56.21 24.79 56.17 24.71 56.17C24.56 56.15 24.42 56.27 24.41 56.42L24.05 59.07C24.04 59.22 24.15 59.37 24.3 59.38C24.46 59.4 24.65 59.3 24.67 59.15L24.91 57.04C24.93 56.88 25.07 56.76 25.23 56.77C25.39 56.79 25.51 56.93 25.5 57.1C25.5 57.11 25.5 57.13 25.5 57.15L25.3 59.2C25.28 59.35 25.42 59.49 25.57 59.5C25.73 59.52 25.9 59.41 25.91 59.25L26.06 57.14C26.07 56.98 26.21 56.86 26.37 56.87C26.54 56.89 26.65 57.03 26.64 57.2C26.64 57.21 26.64 57.23 26.64 57.25L26.55 59.3C26.53 59.46 26.67 59.57 26.82 59.58C26.98 59.59 27.13 59.49 27.15 59.34L27.2 57.2C27.22 56.75 26.88 56.35 26.42 56.31H26.42Z" fill="#023053"/>
<path d="M47.19 50.09L46.58 50.75L46.07 50.28L46.64 49.65C46.74 49.54 46.73 49.36 46.62 49.26C46.5 49.15 46.33 49.16 46.22 49.28L45.65 49.9L45.01 49.32L45.55 48.72C45.65 48.6 45.64 48.43 45.53 48.32C45.41 48.22 45.24 48.23 45.14 48.34L44.41 49.15C44.31 49.27 44.32 49.44 44.43 49.55L46.35 51.41C46.47 51.51 46.64 51.5 46.75 51.39L47.6 50.47C47.7 50.35 47.69 50.18 47.58 50.07C47.47 49.97 47.29 49.98 47.19 50.09Z" fill="#023053"/>
<path d="M61.06 0C60.58 0 56.82 2.87 55.01 4.18C52.51 5.99 49.33 9.04 46.2 12.32L46.17 12.3C41.09 7.75 34.55 5.25 27.75 5.25C12.45 5.25 0 17.78 0 33.19C0 44.25 6.42 53.83 15.71 58.35C15.71 58.36 15.7 58.37 15.7 58.38C15.44 58.86 13.09 63.14 12.89 63.62L12.45 64.42C12.32 64.64 12.3 64.99 12.43 65C12.8 65.03 12.89 64.64 13.15 64.4C13.86 63.71 14.21 63.2 15.03 62.8C15.26 62.69 15.82 62.63 15.82 62.63C16.27 62.54 16.43 62.35 16.59 62.02C16.67 61.85 17.77 59.44 17.77 59.44C17.79 59.38 17.81 59.33 17.84 59.29C20.92 60.47 24.25 61.13 27.74 61.13C43.05 61.13 55.49 48.59 55.49 33.19C55.49 27.55 53.83 22.12 50.69 17.47L50.62 17.37C51.23 16.14 51.59 14.8 51.59 13.65C53.18 12.32 55.41 11.23 55.39 8.77C56.3 8.09 57.58 6.98 57.96 5.86C59.06 5.11 60.32 3.87 60.36 2.89C60.85 2.19 61.4 2.01 61.54 1.23C61.69.81 61.86 0 61.06 0L61.06 0ZM16.21 61.05C16.04 61.43 16.04 61.62 15.72 61.75C15.65 61.76 14.91 61.98 14.61 62.21C14.33 62.24 14.61 61.63 14.87 61.24C15.09 60.91 16.3 58.88 16.3 58.88L17.13 59.22L16.21 61.05L16.21 61.05ZM32.68 53.28L33.03 52.67C32.8 52.21 33.62 50.55 34.33 50.49L34.58 49.95L34.43 49.62C34.57 49.24 34.75 48.86 34.98 48.53C35.09 48.59 35.13 48.95 35.11 49.08L35.46 49.49H35.68C36.04 49.49 36.05 49 36.13 48.76C36.3 48.28 37.67 47.79 38.14 47.02C38.14 46.18 38.95 45.28 39.41 44.6L39.88 44.45C40.27 43.93 40.61 43.87 41.19 43.69C42.44 43.31 42.31 41.35 42.96 41.08C44.17 40.58 45.45 38.39 44.74 37.12C44.3 37.17 43.87 37.05 43.41 37.07C42.94 37.1 42.75 35.95 42.25 36.06C41.71 36.18 40.82 35.83 40.42 35.41L39.82 35.76C39.76 35.71 38.99 35.71 38.93 35.71V35.56C39.51 35.08 40.03 35.5 40.03 34.5C39.68 34.12 39.13 33.85 38.83 33.45L37 33.3C37 33.3 35.5 32.79 34.67 32.39C34.41 32.41 33.98 32.44 33.86 32.44L33.78 32.27C34.76 31.4 37.63 31.32 39.42 31.23C42.66 31.07 42.97 30.21 44.34 27.93C44.98 26.89 45.58 26.87 45.69 24.83C45.71 24.41 46.17 24.25 46.39 23.95C46.54 23.74 46.65 23.54 46.73 23.34C48.28 26.36 49.1 29.76 49.1 33.19C49.1 43.41 41.99 51.98 32.48 54.16C32.57 53.86 32.74 53.45 32.68 53.28L32.68 53.28ZM30.96 42.72L31.11 43.05C31.01 43.12 31.11 43.19 31.11 43.26C31.11 43.42 30.96 44.36 31.05 44.43C30.45 45.35 30.83 47.77 30.3 48.69C31.69 50.8 29.89 50.53 30.45 52.21C30.08 52.97 30.31 53.22 30.55 53.95C30.47 54.12 30.43 54.32 30.39 54.52C29.53 54.63 28.64 54.68 27.75 54.68C15.97 54.68 6.39 45.04 6.39 33.18C6.39 28.42 7.94 24.01 10.55 20.44C10.85 20.88 11.29 21.45 11.62 21.53C12.06 22.16 14.43 25.37 14.89 25.71L15.02 25.59C14.66 24.83 14.45 24.05 14.02 23.3L14.12 23.19C15.18 24.06 16.06 26.06 16.75 26.54C16.75 26.64 16.79 27.1 16.7 27.16C17.36 28.23 18.64 28.21 19.1 28.83C20.69 28.83 20.65 29.61 21.96 30.19C22.03 30.08 22.7 30.2 22.94 30.04C23.17 30.15 23.45 30.21 23.7 30.26C23.78 30.51 24.1 30.79 24.35 30.84C24.62 31.28 25.01 31.67 25.3 32.15H25.68C25.91 32.29 26.13 32.56 26.2 32.81C26.5 32.8 26.93 33.04 27.12 33.26L27.21 33.21C27.26 33.41 27.48 33.6 27.66 33.66L28.53 33.1L28.48 32.9L28.89 32.46L29.35 32.63C29.35 33.16 29.65 33.66 29.65 34.22C29.65 34.81 28.8 34.91 28.8 35.5C28.8 36.36 28.4 36.87 28.05 37.65C28.98 39.09 29.19 40.02 30.68 40.21C31.28 40.82 31.88 42.03 30.95 42.72L30.96 42.72ZM26.15 15.84H25.98C25.86 16.08 25.87 16.32 25.63 16.44V17.35C25.41 17.55 25.52 18.01 25.22 18.01C25.14 18.01 25.12 17.94 25.05 17.91V17.43H25.1V16.9C25.05 16.87 25.02 16.85 24.97 16.85C24.9 16.85 24.86 16.88 24.8 16.9C24.79 16.86 24.75 16.83 24.75 16.79C24.75 16.56 24.96 16.49 25.15 16.37C25.5 16.15 25.72 15.99 25.9 15.62H26.58C26.63 15.72 26.72 15.75 26.73 15.87H26.83C26.83 15.91 26.84 15.94 26.88 15.97V16.37C26.88 16.68 26.82 16.87 26.68 17.15C26.57 17.05 26.57 16.93 26.45 16.85V16.34C26.28 16.19 26.17 16.07 26.15 15.84L26.15 15.84ZM24.44 15.74C24.2 15.74 24.02 15.53 24 15.29C23.91 15.27 23.86 15.24 23.76 15.24C23.56 15.24 23.46 15.34 23.26 15.34C23.06 15.34 22.96 15.2 22.75 15.18V15.01C23.03 14.96 23.23 15.02 23.45 14.86C23.66 14.71 23.76 14.5 24.02 14.5C24.06 14.5 24.1 14.52 24.13 14.56H24.53C24.72 14.77 24.95 14.75 25.13 14.96C25.31 15.17 25.33 15.39 25.58 15.51V15.59C25.51 15.62 25.47 15.64 25.39 15.64C25.28 15.64 25.23 15.59 25.11 15.59C24.85 15.59 24.71 15.74 24.44 15.74V15.74ZM30.9 31.68H30.89C30.19 31.54 29.44 31.92 28.72 32.19C28.13 31.93 28.24 32.84 27.77 32.84C27.43 32.84 27.46 32.29 27.12 32.29L27.07 32.34C26.85 32.01 26.49 31.79 26.18 31.56C26.18 31.12 25.75 29.08 25.19 29.17C24.42 29.29 23.83 29.4 23.83 28.41L24.33 27.54L23.99 27.26C23.36 27.26 23.14 28.06 22.51 28.06C22.51 27.97 22.3 28.11 22 28.06C21.62 28 20.84 27.59 20.68 27.18C19.91 25.26 20.14 24.33 22.19 23.45C22.64 23.44 23.13 23.53 23.34 23.86C23.66 23.8 23.73 23.2 24.1 23.2L24.37 23.21L24.57 23.25L24.98 23.38C25.67 23.25 26.01 23.54 26.18 23.84C26.22 24.55 26.61 24.71 26.7 25.25C26.76 25.43 26.75 25.57 26.94 25.65C26.94 25.65 27.19 25.61 27.23 25.49C27.33 25.18 27.23 24.76 27.14 24.33C27.07 24.02 27.01 23.74 26.87 23.31C26.86 22.97 26.99 22.74 27.24 22.38C27.33 22.25 27.46 21.83 27.58 21.7C27.76 21.51 27.98 21.41 28.18 21.29C28.31 20.87 28.94 20.11 28.68 19.69C28.88 19.32 29.01 19.07 29.03 18.64L29.43 18.42C29.85 17.1 30.93 18 30.93 16.78C30.93 16.36 32.31 15.76 32.62 15.34L33.01 15.61L32.71 16.14L32.89 16.3L33.31 15.95C33.6 16.04 34.22 15.69 34.33 15.41L34.22 15.27L33.82 15.42C33.61 15.31 33.39 15.11 33.28 14.89C33.34 14.68 33.17 14.3 33.08 14.11L32.68 13.88C32.67 13.76 32.68 13.61 32.73 13.49L32.6 13.3L32.05 13.51L31.84 13.41C32.09 13.19 32.27 12.91 32.51 12.67C32.54 12.64 32.76 12.47 32.88 12.32C36.18 13.14 39.25 14.75 41.84 17.04L41.86 17.05C38.96 20.32 36.48 23.35 35.16 25.14C34.16 26.5 33.39 28.03 32.41 29.42C32.17 29.76 31.13 31.73 30.9 31.69L30.9 31.68ZM54.94 33.19C54.94 48.28 42.74 60.56 27.75 60.56C24.31 60.56 21.02 59.92 17.99 58.74C17.95 58.7 17.89 58.69 17.82 58.67C17.62 58.6 17.43 58.52 17.24 58.44C17.21 58.42 17.17 58.4 17.13 58.38C17.06 58.35 16.99 58.32 16.92 58.3C16.64 58.18 16.36 58.05 16.08 57.91C16.06 57.9 16.04 57.89 16.03 57.87H15.99C6.87 53.45.56 44.05.56 33.19C.56 18.09 12.75 5.81 27.75 5.81C34.32 5.81 40.64 8.19 45.58 12.52C44.41 13.76 43.21 15.07 42 16.43C38.03 13 32.98 11.12 27.75 11.12C15.67 11.12 5.84 21.02 5.84 33.19C5.84 45.35 15.67 55.25 27.75 55.25C39.83 55.25 49.66 45.35 49.66 33.19C49.66 29.6 48.78 26.04 47.13 22.88C47.18 22.58 47.19 22.3 47.2 21.99C47.21 21.79 47.21 21.59 47.23 21.37C47.38 21.3 47.53 21.22 47.68 21.13C47.64 21.21 47.64 21.31 47.7 21.39C47.77 21.53 47.94 21.57 48.07 21.49L50.38 20.13C50.51 20.05 50.55 19.88 50.47 19.75C50.4 19.61 50.23 19.57 50.1 19.65L48.3 20.71C49.12 20.08 49.87 19.21 50.49 18.16C53.4 22.63 54.94 27.81 54.94 33.19H54.94ZM60.41 1.87C60.2 2.17 58.94 2.9 58.93 2.99C58.95 3.18 59.44 2.9 59.44 3.03C59.44 3.25 59.05 3.69 58.89 3.85C57.75 5.06 56.08 5.74 55.72 6.02C55.62 6.21 55.98 6.07 55.98 6.07C56.28 5.9 56.43 5.74 56.8 5.74L56.94 5.91C56.94 6.2 55.77 7.35 55.54 7.63L55.09 7.94C54.42 8.4 53.29 8.79 52.65 9.26C52.31 9.5 52.34 9.62 51.99 9.85C51.74 10.38 52.3 9.96 52.3 9.96C53.24 9.15 53.93 8.98 54.48 8.87L54.71 8.98C54.83 10.13 52.37 12.82 50.54 13.12C49.69 13.56 47.29 13.81 46.65 15.12C46.65 15.12 46.46 15.53 46.79 15.25C48.2 14.26 49.45 13.94 50.73 13.75L51.01 13.87C50.98 13.91 50.6 15.37 50.29 15.59C49.05 16.49 47.83 17.01 46.8 18.12C46.68 18.23 46.75 18.46 46.93 18.29C47.28 17.9 49.95 16.2 50.24 16.27C50.31 16.88 49.66 17.73 49.34 18.21C49.34 18.21 48.11 19.87 47.44 20.31C46.67 20.99 42.16 22.83 42.09 23.1C42 23.19 42.17 23.36 42.26 23.27C42.29 23.21 46.04 21.62 46.24 21.66C46.6 24.68 43.55 24.69 41.89 25.88C41.89 25.92 41.96 26.04 42.01 25.99C42.32 25.65 44.29 25.12 44.72 24.93C45.11 24.85 45.16 25.29 44.87 25.87C44.52 27.16 43.91 27.48 41.27 27.95C41.27 27.95 38.88 28.35 38.23 28.51C37.86 28.6 37.5 28.81 37.39 28.94C37.31 29.06 37.38 29.39 37.51 29.27C37.63 29.14 37.99 29.05 38.32 28.95C38.98 28.82 43.34 27.9 43.39 28.15C42.82 30 40.28 30.62 39.07 30.66C39.07 30.66 34.62 30.68 33.34 31.76C33.31 31.77 33.23 31.84 33.11 31.96C33.11 31.96 33.11 31.96 33.1 31.96C33.05 32.01 32.98 32.08 32.91 32.15C32.91 32.15 32.91 32.15 32.9 32.16C32.87 32.19 32.83 32.23 32.8 32.26C32.79 32.27 32.79 32.27 32.78 32.27C32.75 32.31 32.72 32.34 32.68 32.38C32.68 32.38 32.67 32.39 32.67 32.39C32.63 32.43 32.59 32.47 32.55 32.51C32.55 32.51 32.54 32.52 32.53 32.53C32.46 32.6 32.38 32.68 32.3 32.76C32.3 32.77 32.29 32.78 32.28 32.79C32.24 32.83 32.21 32.86 32.17 32.9C32.17 32.91 32.16 32.91 32.16 32.92C32.12 32.95 32.09 32.99 32.05 33.03C32.05 33.03 32.05 33.03 32.04 33.04C32.01 33.08 31.97 33.11 31.94 33.15C31.93 33.16 31.93 33.16 31.92 33.17C31.85 33.24 31.79 33.31 31.73 33.37C31.73 33.38 31.72 33.38 31.72 33.39C31.69 33.42 31.67 33.45 31.64 33.47C31.64 33.47 31.64 33.48 31.64 33.48C31.62 33.51 31.6 33.53 31.58 33.55C31.58 33.55 31.57 33.55 31.57 33.56C31.55 33.58 31.54 33.6 31.52 33.62C31.52 33.62 31.52 33.62 31.52 33.62C31.5 33.64 31.49 33.66 31.49 33.67H31.16L30.96 33.47C30.96 33.45 30.96 33.44 30.97 33.42C30.97 33.41 30.97 33.41 30.97 33.4C30.98 33.38 30.98 33.37 30.99 33.35C30.99 33.34 30.99 33.33 30.99 33.33C31 33.3 31.01 33.27 31.02 33.24C31.03 33.23 31.03 33.22 31.04 33.21C31.04 33.19 31.05 33.16 31.07 33.14C31.07 33.12 31.08 33.11 31.09 33.09C31.1 33.07 31.11 33.04 31.12 33.01C31.13 32.99 31.15 32.97 31.16 32.94C31.17 32.91 31.19 32.88 31.2 32.85C31.22 32.82 31.23 32.79 31.24 32.76C31.25 32.74 31.26 32.72 31.27 32.7C31.29 32.67 31.31 32.64 31.32 32.6C31.32 32.6 31.33 32.6 31.33 32.59C31.37 32.51 31.42 32.42 31.47 32.33C31.47 32.33 31.47 32.32 31.47 32.32C31.5 32.27 31.52 32.22 31.55 32.17C31.64 32.02 31.72 31.86 31.82 31.69C32.7 30.11 33.98 28.05 34.27 27.9C35.42 25.23 39.97 20.14 39.97 20.14C40.01 19.9 42.62 17.12 42.97 16.77C42.93 16.73 47.05 12.47 47.55 11.99C49.1 10.46 51.56 8.15 54.79 5.39C55.95 4.56 58.86 2.4 59.6 1.84C59.92 1.56 60.59 1.05 60.7 1.05C60.98 1.11 60.46 1.81 60.42 1.87L60.41 1.87Z" fill="#023053"/>
<path d="M33.11 26.77H33.38C33.59 26.77 33.78 26.62 33.78 26.4C33.78 26.34 33.72 26.29 33.65 26.29C33.48 26.29 33.38 26.36 33.23 26.44C33.13 26.49 33 26.52 33 26.63C33 26.7 33.07 26.72 33.1 26.77H33.11Z" fill="#023053"/>
<path d="M31.17 27.83C31.3 27.83 31.33 27.68 31.43 27.6C31.54 27.52 31.62 27.5 31.73 27.43C31.95 27.27 32.33 27.34 32.33 27.06C32.33 26.93 32.18 26.9 32.06 26.85C31.91 26.78 31.84 26.7 31.68 26.7H31.16C31.09 26.76 31.04 26.78 30.98 26.85H30.56C30.53 26.9 30.51 26.93 30.51 26.99C30.51 27.12 30.66 27.16 30.66 27.29C30.66 27.43 30.49 27.47 30.36 27.5V27.68C30.41 27.69 30.44 27.73 30.49 27.73C30.64 27.73 30.72 27.63 30.87 27.63C31.01 27.63 31.03 27.83 31.17 27.83L31.17 27.83Z" fill="#023053"/>
<path d="M29.48 26.96C29.48 26.84 29.39 26.74 29.28 26.74H28.76C28.7 26.74 28.67 26.8 28.62 26.8C28.36 26.8 28.3 26.49 28.04 26.49C27.88 26.49 27.81 26.64 27.64 26.64C27.46 26.64 27.37 26.49 27.18 26.49H26.86C26.83 26.51 26.82 26.54 26.78 26.54H26.51C26.25 26.54 26.14 26.7 25.93 26.85C25.78 26.95 25.55 26.97 25.55 27.16C25.55 27.28 25.67 27.26 25.78 27.26C26.08 27.26 26.2 26.91 26.5 26.91C26.63 26.91 26.64 27.1 26.81 27.1L27.23 27.12C27.42 27.12 27.75 27.13 27.75 27.31C27.75 27.36 27.73 27.46 27.73 27.51C27.73 27.65 27.87 27.6 28.01 27.6C28.34 27.6 28.38 27.31 28.71 27.28C29.03 27.25 29.48 27.29 29.48 26.96L29.48 26.96Z" fill="#023053"/>
<path d="M29.17 27.8C28.94 27.8 28.83 27.91 28.63 28C28.52 28.06 28.35 28.04 28.35 28.17C28.35 28.21 28.38 28.24 28.4 28.28H28.68C28.75 28.28 28.78 28.33 28.84 28.33C29.06 28.33 29.18 28.24 29.38 28.18C29.4 28.22 29.41 28.24 29.43 28.28C29.53 28.2 29.68 28.2 29.68 28.07C29.68 27.84 29.39 27.8 29.17 27.8L29.17 27.8Z" fill="#023053"/>
<path d="M60.41 1.87C60.2 2.17 58.94 2.9 58.93 2.99C58.95 3.18 59.44 2.9 59.44 3.03C59.44 3.25 59.05 3.69 58.89 3.85C57.75 5.06 56.08 5.74 55.72 6.02C55.62 6.21 55.98 6.07 55.98 6.07C56.28 5.9 56.43 5.74 56.81 5.74L56.94 5.91C56.94 6.2 55.78 7.35 55.54 7.63L55.09 7.94C54.42 8.4 53.29 8.79 52.65 9.26C52.31 9.5 52.34 9.62 51.99 9.85C51.74 10.38 52.3 9.96 52.3 9.96C53.24 9.15 53.93 8.98 54.48 8.87L54.71 8.98C54.83 10.13 52.37 12.82 50.54 13.12C49.69 13.56 47.29 13.81 46.65 15.12C46.65 15.12 46.46 15.53 46.79 15.25C48.2 14.26 49.45 13.94 50.73 13.75L51.01 13.87C50.98 13.91 50.6 15.37 50.29 15.59C49.05 16.49 47.83 17.01 46.8 18.12C46.68 18.23 46.75 18.46 46.93 18.29C47.28 17.9 49.95 16.2 50.24 16.27C50.31 16.88 49.66 17.73 49.34 18.21C49.34 18.21 48.11 19.87 47.44 20.31C46.67 20.99 42.16 22.83 42.09 23.1C42 23.19 42.17 23.36 42.26 23.27C42.29 23.21 46.04 21.62 46.24 21.66C46.6 24.68 43.55 24.69 41.89 25.88C41.89 25.92 41.96 26.04 42.01 25.99C42.32 25.65 44.29 25.12 44.72 24.93C45.11 24.85 45.16 25.29 44.87 25.87C44.52 27.16 43.92 27.48 41.27 27.95C41.27 27.95 38.88 28.35 38.24 28.51C37.86 28.6 37.51 28.81 37.39 28.94C37.31 29.06 37.38 29.39 37.51 29.27C37.63 29.14 37.99 29.05 38.32 28.95C38.98 28.82 43.34 27.9 43.39 28.15C42.82 30 40.28 30.62 39.07 30.66C39.07 30.66 34.62 30.68 33.34 31.76C33.31 31.77 33.23 31.84 33.11 31.96C33.11 31.96 33.11 31.96 33.1 31.96C33.05 32.01 32.98 32.08 32.91 32.15C32.91 32.15 32.91 32.15 32.9 32.16C32.87 32.19 32.83 32.23 32.8 32.26C32.79 32.27 32.79 32.27 32.78 32.27C32.75 32.31 32.72 32.34 32.68 32.38C32.68 32.38 32.67 32.39 32.67 32.39C32.63 32.43 32.59 32.47 32.56 32.51C32.55 32.51 32.54 32.52 32.54 32.53C32.46 32.6 32.38 32.68 32.3 32.76C32.3 32.77 32.29 32.78 32.28 32.79C32.24 32.83 32.21 32.86 32.17 32.9C32.17 32.91 32.16 32.91 32.16 32.92C32.12 32.95 32.09 32.99 32.05 33.03C32.05 33.03 32.05 33.03 32.04 33.04C32.01 33.08 31.97 33.11 31.94 33.15C31.93 33.16 31.93 33.16 31.92 33.17C31.85 33.24 31.79 33.31 31.73 33.37C31.73 33.38 31.72 33.38 31.72 33.39C31.69 33.42 31.67 33.45 31.64 33.47C31.64 33.47 31.64 33.48 31.64 33.48C31.62 33.51 31.6 33.53 31.58 33.55C31.58 33.55 31.57 33.55 31.57 33.56C31.55 33.58 31.54 33.6 31.53 33.62C31.52 33.62 31.52 33.62 31.52 33.62C31.51 33.64 31.49 33.66 31.49 33.67H31.16L30.96 33.47C30.96 33.45 30.96 33.44 30.97 33.42C30.97 33.41 30.97 33.41 30.97 33.4C30.98 33.39 30.98 33.37 30.99 33.35C30.99 33.34 30.99 33.33 30.99 33.33C31 33.3 31.01 33.27 31.02 33.24C31.03 33.23 31.03 33.22 31.04 33.21C31.04 33.19 31.06 33.16 31.07 33.14C31.07 33.12 31.08 33.11 31.09 33.09C31.1 33.07 31.11 33.04 31.12 33.01C31.13 32.99 31.15 32.97 31.16 32.94C31.17 32.91 31.19 32.88 31.2 32.85C31.22 32.82 31.23 32.79 31.24 32.76C31.25 32.74 31.26 32.72 31.27 32.7C31.29 32.67 31.31 32.64 31.32 32.6C31.32 32.6 31.33 32.6 31.33 32.59C31.37 32.51 31.42 32.42 31.47 32.33C31.47 32.33 31.47 32.32 31.47 32.32C31.5 32.27 31.53 32.22 31.55 32.17C31.64 32.02 31.72 31.86 31.82 31.69C32.7 30.11 33.98 28.05 34.27 27.9C35.42 25.23 39.97 20.14 39.97 20.14C40.01 19.9 42.62 17.12 42.97 16.77C42.93 16.73 47.05 12.47 47.55 11.99C49.1 10.46 51.56 8.15 54.79 5.39C55.95 4.56 58.86 2.4 59.6 1.84C59.92 1.56 60.6 1.05 60.7 1.05C60.98 1.11 60.47 1.81 60.42 1.87L60.41 1.87Z" fill="white"/>
<path d="M69.29 31.35C69.29 29.31 69.29 28.94 69.26 28.52C69.23 28.07 69.1 27.85 68.82 27.79C68.67 27.75 68.5 27.74 68.41 27.74C68.36 27.74 68.31 27.71 68.31 27.66C68.31 27.58 68.37 27.55 68.52 27.55C68.95 27.55 69.77 27.59 69.83 27.59C69.9 27.59 70.72 27.55 71.11 27.55C71.25 27.55 71.31 27.58 71.31 27.66C71.31 27.71 71.26 27.74 71.21 27.74C71.12 27.74 71.04 27.75 70.88 27.78C70.53 27.84 70.43 28.06 70.4 28.52C70.38 28.94 70.38 29.31 70.38 31.35V33.66C70.38 34.92 70.38 35.95 70.44 36.5C70.48 36.88 70.56 37.17 70.95 37.22C71.13 37.25 71.41 37.28 71.48 37.28C71.6 37.28 71.64 37.32 71.64 37.35C71.64 37.42 71.59 37.46 71.44 37.46C70.73 37.46 69.89 37.42 69.83 37.42C69.76 37.42 68.94 37.46 68.55 37.46C68.41 37.46 68.35 37.43 68.35 37.35C68.35 37.31 68.37 37.28 68.49 37.28C68.57 37.28 68.71 37.26 68.83 37.24C69.09 37.18 69.16 36.88 69.22 36.5C69.28 35.95 69.28 34.92 69.28 33.66V31.36L69.29 31.35Z" fill="#023053"/>
<path d="M74.03 34.11C74.03 30.01 74.05 31.49 74.04 29.29C74.04 28.85 74.08 28.72 74.17 28.72C74.26 28.72 74.45 28.97 74.56 29.08C74.73 29.28 76.41 31.1 78.14 32.97C79.26 34.18 80.49 35.56 80.85 35.93L80.72 30.17C80.71 29.44 80.63 29.19 80.29 29.1C80.08 29.05 79.9 29.04 79.8 29.04C79.68 29.04 79.64 29.01 79.64 28.96C79.64 28.89 79.73 28.88 79.87 28.88C80.38 28.88 80.92 28.91 81.04 28.91C81.16 28.91 81.54 28.88 82 28.88C82.12 28.88 82.2 28.89 82.2 28.96C82.2 29.01 82.16 29.03 82.08 29.04C81.99 29.05 81.92 29.06 81.78 29.09C81.47 29.15 81.39 29.32 81.39 30.11L81.37 36.73C81.37 37.48 81.34 37.54 81.26 37.54C81.17 37.54 81.04 37.41 80.44 36.81C80.32 36.7 78.69 35.03 77.5 33.74C76.2 32.32 74.92 30.89 74.56 30.48L74.71 35.91C74.73 36.85 74.84 37.14 75.15 37.23C75.36 37.29 75.61 37.3 75.71 37.3C75.77 37.3 75.8 37.32 75.8 37.37C75.8 37.44 75.73 37.46 75.6 37.46C74.95 37.46 74.5 37.42 74.4 37.42C74.3 37.42 73.83 37.46 73.32 37.46C73.21 37.46 73.14 37.45 73.14 37.37C73.14 37.32 73.17 37.3 73.23 37.3C73.32 37.3 73.52 37.29 73.69 37.23C73.97 37.15 74.03 36.82 74.03 35.79V34.11H74.03Z" fill="#023053"/>
<path d="M87.21 34.16C87.21 35.25 87.21 36.15 87.27 36.63C87.3 36.95 87.37 37.2 87.71 37.25C87.87 37.27 88.11 37.29 88.21 37.29C88.28 37.29 88.3 37.33 88.3 37.36C88.3 37.42 88.25 37.45 88.12 37.45C87.5 37.45 86.79 37.42 86.74 37.42C86.68 37.42 85.97 37.45 85.64 37.45C85.51 37.45 85.45 37.43 85.45 37.36C85.45 37.33 85.48 37.29 85.55 37.29C85.65 37.29 85.78 37.27 85.88 37.25C86.11 37.2 86.16 36.95 86.21 36.63C86.27 36.15 86.27 35.25 86.27 34.16V29.37C85.72 29.38 85.15 29.38 84.6 29.39C83.9 29.4 83.63 29.48 83.45 29.75C83.33 29.95 83.29 30.02 83.26 30.1C83.22 30.19 83.19 30.22 83.15 30.22C83.11 30.22 83.09 30.18 83.09 30.11C83.09 30 83.31 29.03 83.33 28.93C83.36 28.87 83.4 28.72 83.45 28.72C83.53 28.72 83.64 28.83 83.94 28.85C84.27 28.89 84.7 28.91 84.83 28.91H89.06C89.42 28.91 89.68 28.89 89.86 28.85C90.03 28.83 90.13 28.8 90.17 28.8C90.23 28.8 90.23 28.87 90.23 28.93C90.23 29.27 90.2 30.06 90.2 30.18C90.2 30.28 90.16 30.33 90.12 30.33C90.06 30.33 90.04 30.29 90.03 30.13C90.03 30.09 90.02 30.05 90.02 30.01C89.98 29.67 89.71 29.41 88.63 29.39C88.16 29.37 87.68 29.37 87.21 29.36V34.16V34.16Z" fill="#023053"/>
<path d="M92.33 32.17C92.33 30.4 92.33 30.08 92.31 29.72C92.29 29.33 92.2 29.15 91.83 29.07C91.75 29.05 91.6 29.05 91.5 29.04C91.42 29.03 91.36 29.02 91.36 28.97C91.36 28.9 91.41 28.88 91.54 28.88C91.79 28.88 92.1 28.88 92.81 28.91C92.89 28.91 95.13 28.91 95.39 28.9C95.64 28.89 95.84 28.87 95.91 28.83C95.98 28.8 96 28.79 96.03 28.79C96.06 28.79 96.08 28.83 96.08 28.89C96.08 28.97 96.01 29.11 95.99 29.42C95.97 29.59 95.96 29.81 95.94 30.1C95.93 30.22 95.9 30.3 95.85 30.3C95.78 30.3 95.76 30.24 95.76 30.15C95.76 30 95.74 29.86 95.7 29.77C95.62 29.51 95.39 29.4 94.89 29.35C94.7 29.33 93.47 29.32 93.35 29.32C93.3 29.32 93.28 29.35 93.28 29.43V32.57C93.28 32.65 93.29 32.68 93.35 32.68C93.49 32.68 94.88 32.68 95.14 32.66C95.44 32.63 95.59 32.6 95.7 32.46C95.76 32.39 95.79 32.35 95.84 32.35C95.87 32.35 95.89 32.37 95.89 32.44C95.89 32.51 95.84 32.7 95.8 33.08C95.77 33.43 95.77 33.69 95.76 33.85C95.75 33.96 95.73 34.02 95.68 34.02C95.61 34.02 95.6 33.93 95.6 33.84C95.6 33.73 95.59 33.62 95.56 33.52C95.51 33.35 95.37 33.19 94.97 33.14C94.66 33.11 93.55 33.09 93.36 33.09C93.3 33.09 93.28 33.12 93.28 33.17V34.16C93.28 34.55 93.27 35.87 93.28 36.1C93.3 36.57 93.37 36.82 93.65 36.93C93.84 37.01 94.15 37.03 94.59 37.03C94.92 37.03 95.3 37.02 95.6 36.93C95.96 36.82 96.09 36.58 96.18 36.09C96.2 35.97 96.22 35.92 96.28 35.92C96.34 35.92 96.34 36.01 96.34 36.09C96.34 36.18 96.25 36.95 96.2 37.19C96.12 37.49 96.03 37.49 95.59 37.49C94.76 37.49 94.39 37.47 93.94 37.45C93.5 37.44 92.98 37.42 92.54 37.42C92.27 37.42 92 37.47 91.7 37.45C91.58 37.45 91.52 37.43 91.52 37.36C91.52 37.33 91.58 37.31 91.65 37.29C91.76 37.28 91.83 37.28 91.9 37.26C92.14 37.2 92.29 37.05 92.31 36.19C92.32 35.75 92.33 35.17 92.33 34.16V32.17H92.33Z" fill="#023053"/>
<path d="M98.7 32.17C98.7 30.4 98.7 30.08 98.68 29.72C98.66 29.33 98.57 29.15 98.19 29.07C98.1 29.05 97.91 29.04 97.81 29.04C97.77 29.04 97.72 29.02 97.72 28.97C97.72 28.9 97.78 28.88 97.9 28.88C98.41 28.88 99.12 28.91 99.17 28.91C99.3 28.91 100.15 28.88 100.5 28.88C101.21 28.88 101.97 28.95 102.56 29.38C102.85 29.58 103.34 30.14 103.34 30.92C103.34 31.76 102.99 32.6 101.98 33.54C102.9 34.73 103.67 35.74 104.32 36.45C104.93 37.09 105.41 37.22 105.69 37.26C105.91 37.3 106.07 37.3 106.13 37.3C106.19 37.3 106.23 37.33 106.23 37.37C106.23 37.43 106.17 37.46 105.96 37.46H105.16C104.53 37.46 104.25 37.4 103.96 37.24C103.47 36.98 103.08 36.42 102.44 35.57C101.97 34.95 101.44 34.19 101.21 33.89C101.17 33.85 101.13 33.82 101.06 33.82L99.68 33.8C99.62 33.8 99.6 33.84 99.6 33.89V34.17C99.6 35.26 99.6 36.15 99.66 36.63C99.69 36.96 99.76 37.21 100.1 37.25C100.25 37.27 100.5 37.3 100.6 37.3C100.67 37.3 100.69 37.33 100.69 37.37C100.69 37.42 100.64 37.46 100.51 37.46C99.89 37.46 99.18 37.42 99.13 37.42C99.12 37.42 98.41 37.46 98.07 37.46C97.95 37.46 97.89 37.43 97.89 37.37C97.89 37.33 97.91 37.3 97.98 37.3C98.08 37.3 98.22 37.27 98.32 37.25C98.54 37.21 98.6 36.96 98.64 36.63C98.7 36.15 98.7 35.26 98.7 34.17V32.17V32.17ZM99.6 33.16C99.6 33.21 99.62 33.26 99.68 33.29C99.85 33.39 100.37 33.47 100.86 33.47C101.14 33.47 101.45 33.44 101.71 33.26C102.1 32.99 102.4 32.37 102.4 31.51C102.4 30.09 101.65 29.24 100.45 29.24C100.11 29.24 99.81 29.28 99.7 29.31C99.64 29.33 99.6 29.38 99.6 29.45V33.16H99.6Z" fill="#023053"/>
<path d="M107.68 34.11C107.62 34.11 107.59 34.14 107.56 34.2L106.89 36.21C106.79 36.49 106.73 36.76 106.73 36.97C106.73 37.19 106.95 37.3 107.14 37.3H107.24C107.35 37.3 107.39 37.32 107.39 37.37C107.39 37.43 107.28 37.46 107.18 37.46C106.91 37.46 106.46 37.42 106.34 37.42C106.22 37.42 105.59 37.46 105.07 37.46C104.92 37.46 104.85 37.43 104.85 37.37C104.85 37.32 104.91 37.3 105.01 37.3C105.09 37.3 105.19 37.29 105.28 37.27C105.8 37.21 106.02 36.77 106.23 36.21L108.78 29.17C108.92 28.79 108.96 28.72 109.03 28.72C109.09 28.72 109.14 28.78 109.28 29.13C109.45 29.56 111.21 34.25 111.9 35.97C112.31 36.98 112.63 37.16 112.87 37.23C113.04 37.29 113.22 37.3 113.31 37.3C113.38 37.3 113.43 37.31 113.43 37.37C113.43 37.44 113.33 37.46 113.21 37.46C113.04 37.46 112.22 37.46 111.44 37.44C111.22 37.43 111.1 37.43 111.1 37.36C111.1 37.31 111.13 37.29 111.18 37.28C111.25 37.26 111.31 37.15 111.25 36.97L110.2 34.18C110.18 34.14 110.16 34.11 110.1 34.11H107.68V34.11ZM109.95 33.7C110.01 33.7 110.01 33.67 110 33.62L108.93 30.56C108.87 30.39 108.81 30.39 108.76 30.56L107.77 33.62C107.75 33.68 107.77 33.7 107.8 33.7H109.95H109.95Z" fill="#023053"/>
<path d="M123.45 35.99C123.49 36.4 123.57 37.03 124.05 37.19C124.38 37.29 124.64 37.29 124.75 37.29C124.81 37.29 124.88 37.31 124.88 37.36C124.88 37.43 124.84 37.45 124.71 37.45C124.46 37.45 123.17 37.42 122.76 37.39C122.5 37.36 122.44 37.33 122.44 37.27C122.44 37.23 122.46 37.22 122.52 37.19C122.6 37.16 122.59 36.99 122.56 36.78L122.03 30.86L119.23 36.83C118.99 37.33 118.96 37.43 118.86 37.43C118.78 37.43 118.72 37.32 118.51 36.91C118.22 36.35 117.25 34.39 117.19 34.28C117.09 34.07 115.79 31.27 115.67 30.96L115.21 36.31C115.2 36.49 115.19 36.65 115.19 36.84C115.19 37.12 115.32 37.21 115.49 37.25C115.68 37.29 115.83 37.29 115.9 37.29C115.97 37.29 116.01 37.31 116.01 37.35C116.01 37.43 115.95 37.45 115.84 37.45C115.42 37.45 114.85 37.42 114.76 37.42C114.66 37.42 114.12 37.45 113.81 37.45C113.7 37.45 113.62 37.44 113.62 37.36C113.62 37.31 113.68 37.29 113.73 37.29C113.82 37.29 113.9 37.29 114.07 37.26C114.44 37.19 114.47 36.78 114.52 36.31L115.33 28.94C115.34 28.82 115.39 28.71 115.46 28.71C115.52 28.71 115.57 28.76 115.63 28.89L119.07 36.02L122.39 28.9C122.43 28.79 122.48 28.71 122.56 28.71C122.64 28.71 122.67 28.81 122.69 29.02L123.45 35.99V35.99Z" fill="#023053"/>
<path d="M126.63 32.17C126.63 30.4 126.63 30.08 126.61 29.72C126.59 29.33 126.5 29.15 126.13 29.07C126.05 29.05 125.9 29.05 125.8 29.04C125.72 29.03 125.65 29.02 125.65 28.97C125.65 28.9 125.71 28.88 125.83 28.88C126.09 28.88 126.4 28.88 127.11 28.91C127.19 28.91 129.43 28.91 129.69 28.9C129.94 28.89 130.14 28.87 130.21 28.83C130.28 28.8 130.3 28.79 130.33 28.79C130.36 28.79 130.38 28.83 130.38 28.89C130.38 28.97 130.31 29.11 130.28 29.42C130.27 29.59 130.26 29.81 130.24 30.1C130.23 30.22 130.2 30.3 130.15 30.3C130.08 30.3 130.06 30.24 130.06 30.15C130.06 30 130.04 29.86 130 29.77C129.92 29.51 129.69 29.4 129.19 29.35C129 29.33 127.77 29.32 127.65 29.32C127.6 29.32 127.58 29.35 127.58 29.43V32.57C127.58 32.65 127.59 32.68 127.65 32.68C127.79 32.68 129.18 32.68 129.44 32.66C129.74 32.63 129.89 32.6 130 32.46C130.06 32.39 130.09 32.35 130.13 32.35C130.17 32.35 130.19 32.37 130.19 32.44C130.19 32.51 130.13 32.7 130.1 33.08C130.07 33.43 130.07 33.69 130.06 33.85C130.05 33.96 130.02 34.02 129.98 34.02C129.91 34.02 129.9 33.93 129.9 33.84C129.9 33.73 129.89 33.62 129.85 33.52C129.81 33.35 129.67 33.19 129.27 33.14C128.96 33.11 127.85 33.09 127.66 33.09C127.6 33.09 127.58 33.12 127.58 33.17V34.16C127.58 34.55 127.57 35.87 127.58 36.1C127.6 36.57 127.67 36.82 127.95 36.93C128.14 37.01 128.45 37.03 128.89 37.03C129.22 37.03 129.6 37.02 129.9 36.93C130.26 36.82 130.39 36.58 130.47 36.09C130.5 35.97 130.52 35.92 130.57 35.92C130.64 35.92 130.64 36.01 130.64 36.09C130.64 36.18 130.55 36.95 130.5 37.19C130.42 37.49 130.33 37.49 129.89 37.49C129.06 37.49 128.69 37.47 128.24 37.45C127.79 37.44 127.28 37.42 126.84 37.42C126.56 37.42 126.3 37.47 126 37.45C125.88 37.45 125.82 37.43 125.82 37.36C125.82 37.33 125.88 37.31 125.94 37.29C126.06 37.28 126.13 37.28 126.2 37.26C126.44 37.2 126.59 37.05 126.61 36.19C126.62 35.75 126.63 35.17 126.63 34.16V32.17H126.63Z" fill="#023053"/>
<path d="M133 32.17C133 30.4 133 30.08 132.97 29.72C132.95 29.33 132.86 29.15 132.49 29.07C132.4 29.05 132.21 29.04 132.11 29.04C132.06 29.04 132.02 29.02 132.02 28.97C132.02 28.9 132.07 28.88 132.2 28.88C132.7 28.88 133.41 28.91 133.47 28.91C133.59 28.91 134.45 28.88 134.8 28.88C135.51 28.88 136.26 28.95 136.86 29.38C137.14 29.58 137.64 30.14 137.64 30.92C137.64 31.76 137.29 32.6 136.28 33.54C137.2 34.73 137.97 35.74 138.62 36.45C139.23 37.09 139.71 37.22 139.99 37.26C140.21 37.3 140.36 37.3 140.43 37.3C140.49 37.3 140.53 37.33 140.53 37.37C140.53 37.43 140.46 37.46 140.26 37.46H139.46C138.83 37.46 138.55 37.4 138.26 37.24C137.77 36.98 137.38 36.42 136.74 35.57C136.26 34.95 135.73 34.19 135.51 33.89C135.46 33.85 135.43 33.82 135.36 33.82L133.98 33.8C133.92 33.8 133.9 33.84 133.9 33.89V34.17C133.9 35.26 133.9 36.15 133.95 36.63C133.99 36.96 134.06 37.21 134.39 37.25C134.55 37.27 134.8 37.3 134.9 37.3C134.97 37.3 134.99 37.33 134.99 37.37C134.99 37.42 134.93 37.46 134.81 37.46C134.19 37.46 133.48 37.42 133.43 37.42C133.41 37.42 132.7 37.46 132.37 37.46C132.24 37.46 132.19 37.43 132.19 37.37C132.19 37.33 132.21 37.3 132.28 37.3C132.38 37.3 132.51 37.27 132.61 37.25C132.84 37.21 132.9 36.96 132.94 36.63C133 36.15 133 35.26 133 34.17V32.17V32.17ZM133.9 33.16C133.9 33.21 133.92 33.26 133.98 33.29C134.15 33.39 134.67 33.47 135.16 33.47C135.43 33.47 135.75 33.44 136.01 33.26C136.4 32.99 136.69 32.37 136.69 31.51C136.69 30.09 135.95 29.24 134.75 29.24C134.41 29.24 134.1 29.28 133.99 29.31C133.94 29.33 133.9 29.38 133.9 29.45V33.16H133.9Z" fill="#023053"/>
<path d="M141.23 32.17C141.23 30.4 141.23 30.08 141.21 29.72C141.19 29.33 141.07 29.14 140.83 29.08C140.7 29.05 140.55 29.04 140.48 29.04C140.43 29.04 140.39 29.02 140.39 28.97C140.39 28.9 140.44 28.88 140.57 28.88C140.94 28.88 141.65 28.91 141.71 28.91C141.76 28.91 142.47 28.88 142.81 28.88C142.93 28.88 142.99 28.9 142.99 28.97C142.99 29.01 142.94 29.04 142.9 29.04C142.82 29.04 142.75 29.05 142.62 29.07C142.31 29.13 142.22 29.32 142.2 29.72C142.18 30.08 142.18 30.4 142.18 32.17V34.16C142.18 35.25 142.18 36.15 142.24 36.63C142.27 36.95 142.34 37.2 142.67 37.25C142.83 37.27 143.07 37.29 143.13 37.29C143.24 37.29 143.27 37.33 143.27 37.36C143.27 37.42 143.23 37.45 143.1 37.45C142.48 37.45 141.76 37.42 141.7 37.42C141.65 37.42 140.94 37.45 140.6 37.45C140.47 37.45 140.42 37.43 140.42 37.36C140.42 37.33 140.44 37.29 140.54 37.29C140.61 37.29 140.73 37.28 140.83 37.26C141.06 37.22 141.13 36.95 141.17 36.63C141.23 36.15 141.23 35.25 141.23 34.16V32.17H141.23Z" fill="#023053"/>
<path d="M145.84 36.39C144.75 35.4 144.48 34.11 144.48 33.03C144.48 32.27 144.74 30.94 145.74 29.93C146.41 29.25 147.44 28.72 149.18 28.72C149.62 28.72 150.26 28.75 150.81 28.86C151.24 28.94 151.59 28.97 152 29.03C152.08 29.04 152.1 29.09 152.1 29.15C152.1 29.24 152.07 29.38 152.05 29.79C152.03 30.16 152.03 30.78 152.01 30.96C152 31.13 151.98 31.19 151.91 31.19C151.83 31.19 151.82 31.11 151.82 30.96C151.82 30.51 151.64 30.05 151.35 29.8C150.95 29.46 150.09 29.15 149.09 29.15C147.6 29.15 146.9 29.59 146.5 29.98C145.68 30.78 145.49 31.78 145.49 32.94C145.49 35.11 147.15 37.09 149.56 37.09C150.4 37.09 151.06 36.99 151.52 36.53C151.75 36.28 151.9 35.78 151.93 35.57C151.96 35.45 151.98 35.4 152.05 35.4C152.1 35.4 152.13 35.48 152.13 35.57C152.13 35.65 151.99 36.64 151.88 37.03C151.81 37.24 151.79 37.26 151.59 37.35C151.14 37.54 150.28 37.61 149.56 37.61C147.87 37.61 146.73 37.19 145.84 36.39H145.84Z" fill="#023053"/>
<path d="M155.32 34.11C155.26 34.11 155.23 34.14 155.21 34.2L154.53 36.21C154.43 36.49 154.38 36.76 154.38 36.97C154.38 37.19 154.59 37.3 154.78 37.3H154.88C155 37.3 155.03 37.32 155.03 37.37C155.03 37.43 154.93 37.46 154.83 37.46C154.56 37.46 154.11 37.42 153.98 37.42C153.86 37.42 153.24 37.46 152.71 37.46C152.56 37.46 152.5 37.43 152.5 37.37C152.5 37.32 152.55 37.3 152.65 37.3C152.73 37.3 152.83 37.29 152.92 37.27C153.44 37.21 153.67 36.77 153.87 36.21L156.43 29.17C156.56 28.79 156.61 28.72 156.67 28.72C156.74 28.72 156.79 28.78 156.92 29.13C157.09 29.56 158.86 34.25 159.55 35.97C159.95 36.98 160.28 37.16 160.51 37.23C160.68 37.29 160.86 37.3 160.95 37.3C161.02 37.3 161.08 37.31 161.08 37.37C161.08 37.44 160.97 37.46 160.85 37.46C160.68 37.46 159.86 37.46 159.08 37.44C158.87 37.43 158.75 37.43 158.75 37.36C158.75 37.31 158.78 37.29 158.82 37.28C158.89 37.26 158.96 37.15 158.89 36.97L157.84 34.18C157.82 34.14 157.8 34.11 157.74 34.11H155.32V34.11ZM157.6 33.7C157.66 33.7 157.66 33.67 157.64 33.62L156.57 30.56C156.51 30.39 156.46 30.39 156.4 30.56L155.41 33.62C155.39 33.68 155.41 33.7 155.44 33.7H157.6H157.6Z" fill="#023053"/>
<path d="M161.95 34.11C161.95 30.01 161.97 31.49 161.96 29.29C161.96 28.85 161.99 28.72 162.08 28.72C162.17 28.72 162.36 28.97 162.47 29.08C162.65 29.28 164.32 31.1 166.06 32.97C167.17 34.18 168.4 35.56 168.76 35.93L168.64 30.17C168.63 29.44 168.55 29.19 168.2 29.1C168 29.05 167.81 29.04 167.71 29.04C167.59 29.04 167.56 29.01 167.56 28.96C167.56 28.89 167.65 28.88 167.78 28.88C168.29 28.88 168.83 28.91 168.95 28.91C169.08 28.91 169.45 28.88 169.91 28.88C170.03 28.88 170.11 28.89 170.11 28.96C170.11 29.01 170.07 29.03 169.99 29.04C169.9 29.05 169.83 29.06 169.7 29.09C169.38 29.15 169.3 29.32 169.3 30.11L169.28 36.73C169.28 37.48 169.26 37.54 169.18 37.54C169.09 37.54 168.95 37.41 168.36 36.81C168.23 36.7 166.61 35.03 165.41 33.74C164.11 32.32 162.84 30.89 162.47 30.48L162.62 35.91C162.64 36.85 162.75 37.14 163.06 37.23C163.27 37.29 163.52 37.3 163.62 37.3C163.68 37.3 163.71 37.32 163.71 37.37C163.71 37.44 163.64 37.46 163.51 37.46C162.87 37.46 162.42 37.42 162.32 37.42C162.22 37.42 161.74 37.46 161.24 37.46C161.12 37.46 161.06 37.45 161.06 37.37C161.06 37.32 161.09 37.3 161.15 37.3C161.24 37.3 161.44 37.29 161.61 37.23C161.89 37.15 161.94 36.82 161.94 35.79V34.11H161.95Z" fill="#023053"/>
<path d="M173.24 34.11C173.19 34.11 173.15 34.14 173.13 34.2L172.46 36.21C172.35 36.49 172.3 36.76 172.3 36.97C172.3 37.19 172.51 37.3 172.71 37.3H172.81C172.92 37.3 172.95 37.32 172.95 37.37C172.95 37.43 172.85 37.46 172.75 37.46C172.48 37.46 172.03 37.42 171.91 37.42C171.78 37.42 171.16 37.46 170.63 37.46C170.49 37.46 170.42 37.43 170.42 37.37C170.42 37.32 170.47 37.3 170.57 37.3C170.65 37.3 170.75 37.29 170.85 37.27C171.36 37.21 171.59 36.77 171.79 36.21L174.35 29.17C174.48 28.79 174.53 28.72 174.6 28.72C174.66 28.72 174.71 28.78 174.84 29.13C175.01 29.56 176.78 34.25 177.47 35.97C177.87 36.98 178.2 37.16 178.44 37.23C178.61 37.29 178.78 37.3 178.88 37.3C178.94 37.3 179 37.31 179 37.37C179 37.44 178.9 37.46 178.77 37.46C178.6 37.46 177.78 37.46 177 37.44C176.79 37.43 176.67 37.43 176.67 37.36C176.67 37.31 176.7 37.29 176.75 37.28C176.81 37.26 176.88 37.15 176.81 36.97L175.77 34.18C175.75 34.14 175.72 34.11 175.66 34.11H173.24V34.11ZM175.52 33.7C175.58 33.7 175.58 33.67 175.56 33.62L174.49 30.56C174.44 30.39 174.38 30.39 174.32 30.56L173.33 33.62C173.31 33.68 173.33 33.7 173.37 33.7H175.52H175.52Z" fill="#023053"/>
<path d="M68.98 49.22C68.98 47.45 68.98 47.13 68.96 46.77C68.93 46.38 68.88 46.2 68.51 46.12C68.41 46.1 68.22 46.09 68.12 46.09C68.04 46.09 68 46.07 68 46.02C68 45.95 68.06 45.93 68.18 45.93C68.69 45.93 69.4 45.96 69.45 45.96C69.59 45.96 70.3 45.93 70.97 45.93C72.09 45.93 74.15 45.83 75.49 47.22C76.05 47.81 76.58 48.75 76.58 50.1C76.58 51.53 75.99 52.63 75.36 53.3C74.88 53.81 73.87 54.6 71.95 54.6C71.47 54.6 70.87 54.57 70.38 54.53C69.89 54.5 69.51 54.47 69.45 54.47C69.43 54.47 69.24 54.47 69 54.48C68.77 54.48 68.51 54.5 68.35 54.5C68.22 54.5 68.17 54.48 68.17 54.41C68.17 54.38 68.19 54.34 68.28 54.34C68.4 54.33 68.49 54.32 68.59 54.3C68.82 54.25 68.88 54 68.92 53.67C68.98 53.2 68.98 52.3 68.98 51.21V49.21V49.22ZM69.92 50.44C69.92 51.65 69.93 52.69 69.95 52.9C69.96 53.19 69.98 53.64 70.07 53.77C70.21 53.98 70.66 54.22 71.98 54.22C73.03 54.22 74 53.83 74.67 53.16C75.25 52.59 75.57 51.5 75.57 50.45C75.57 49.01 74.95 48.08 74.49 47.59C73.43 46.47 72.14 46.31 70.8 46.31C70.58 46.31 70.16 46.35 70.07 46.39C69.97 46.44 69.94 46.5 69.94 46.62C69.93 47.01 69.93 48.16 69.93 49.04V50.44L69.92 50.44Z" fill="#023053"/>
<path d="M78.88 49.22C78.88 47.45 78.88 47.13 78.86 46.77C78.84 46.38 78.75 46.2 78.37 46.12C78.29 46.1 78.15 46.1 78.05 46.09C77.97 46.08 77.9 46.07 77.9 46.02C77.9 45.95 77.96 45.93 78.08 45.93C78.34 45.93 78.64 45.93 79.35 45.96C79.43 45.96 81.67 45.96 81.93 45.95C82.18 45.94 82.38 45.92 82.45 45.88C82.52 45.85 82.54 45.84 82.58 45.84C82.61 45.84 82.62 45.88 82.62 45.94C82.62 46.02 82.55 46.16 82.53 46.47C82.52 46.64 82.51 46.86 82.49 47.15C82.48 47.27 82.44 47.35 82.4 47.35C82.33 47.35 82.31 47.29 82.31 47.2C82.31 47.05 82.28 46.91 82.25 46.82C82.17 46.56 81.93 46.45 81.44 46.4C81.24 46.38 80.02 46.37 79.89 46.37C79.85 46.37 79.82 46.4 79.82 46.48V49.62C79.82 49.7 79.83 49.73 79.89 49.73C80.04 49.73 81.43 49.73 81.68 49.71C81.99 49.68 82.13 49.65 82.25 49.51C82.3 49.44 82.34 49.4 82.38 49.4C82.41 49.4 82.44 49.42 82.44 49.49C82.44 49.56 82.38 49.75 82.35 50.13C82.31 50.48 82.31 50.74 82.3 50.9C82.29 51.01 82.27 51.07 82.22 51.07C82.16 51.07 82.14 50.98 82.14 50.89C82.14 50.78 82.13 50.67 82.1 50.57C82.06 50.4 81.92 50.24 81.51 50.19C81.21 50.16 80.09 50.14 79.9 50.14C79.85 50.14 79.82 50.17 79.82 50.22V51.21C79.82 51.6 79.81 52.92 79.82 53.15C79.85 53.62 79.91 53.87 80.2 53.98C80.39 54.06 80.69 54.08 81.13 54.08C81.47 54.08 81.84 54.07 82.15 53.98C82.51 53.87 82.63 53.63 82.72 53.14C82.74 53.02 82.76 52.97 82.82 52.97C82.89 52.97 82.89 53.06 82.89 53.14C82.89 53.23 82.8 54 82.74 54.24C82.66 54.54 82.57 54.54 82.14 54.54C81.3 54.54 80.93 54.52 80.49 54.5C80.04 54.49 79.52 54.47 79.08 54.47C78.81 54.47 78.54 54.52 78.25 54.5C78.13 54.5 78.07 54.48 78.07 54.41C78.07 54.38 78.13 54.36 78.19 54.34C78.3 54.33 78.37 54.33 78.45 54.31C78.69 54.25 78.83 54.1 78.86 53.24C78.87 52.8 78.88 52.22 78.88 51.21V49.22H78.88Z" fill="#023053"/>
<path d="M89.2 48.4C89.2 46.36 89.2 45.99 89.18 45.57C89.15 45.12 89.05 44.92 88.62 44.83C88.51 44.8 88.29 44.79 88.17 44.79C88.12 44.79 88.07 44.76 88.07 44.71C88.07 44.63 88.13 44.6 88.28 44.6C88.86 44.6 89.65 44.64 89.75 44.64C90.04 44.64 90.79 44.6 91.39 44.6C93.02 44.6 93.6 45.15 93.81 45.35C94.1 45.62 94.46 46.21 94.46 47.07C94.46 48.77 93.11 50.03 91.26 50.03C91.19 50.03 91.05 50.03 90.98 50.01C90.92 50.01 90.84 49.99 90.84 49.92C90.84 49.82 90.92 49.8 91.19 49.8C92.45 49.8 93.44 48.94 93.44 47.56C93.44 47.23 93.4 46.36 92.72 45.65C92.03 44.94 91.23 44.99 90.93 44.99C90.71 44.99 90.49 45.02 90.37 45.07C90.3 45.1 90.27 45.19 90.27 45.32V50.71C90.27 51.96 90.27 53 90.34 53.55C90.38 53.93 90.45 54.22 90.84 54.27C91.03 54.3 91.31 54.32 91.43 54.32C91.51 54.32 91.53 54.36 91.53 54.4C91.53 54.47 91.47 54.51 91.33 54.51C90.61 54.51 89.79 54.47 89.72 54.47C89.68 54.47 88.87 54.51 88.48 54.51C88.33 54.51 88.27 54.48 88.27 54.4C88.27 54.36 88.3 54.32 88.37 54.32C88.49 54.32 88.65 54.3 88.76 54.27C89.02 54.22 89.09 53.93 89.14 53.55C89.2 53 89.2 51.96 89.2 50.71V48.4V48.4Z" fill="#023053"/>
<path d="M96.95 49.22C96.95 47.45 96.95 47.13 96.92 46.77C96.9 46.38 96.81 46.2 96.44 46.12C96.35 46.1 96.16 46.09 96.06 46.09C96.01 46.09 95.96 46.07 95.96 46.02C95.96 45.95 96.02 45.93 96.15 45.93C96.65 45.93 97.36 45.96 97.42 45.96C97.54 45.96 98.4 45.93 98.75 45.93C99.46 45.93 100.21 46 100.81 46.43C101.09 46.63 101.59 47.19 101.59 47.97C101.59 48.81 101.24 49.65 100.22 50.59C101.15 51.78 101.91 52.79 102.57 53.5C103.17 54.14 103.66 54.27 103.94 54.31C104.16 54.35 104.31 54.35 104.38 54.35C104.44 54.35 104.48 54.38 104.48 54.42C104.48 54.48 104.41 54.51 104.21 54.51H103.41C102.78 54.51 102.5 54.45 102.2 54.29C101.72 54.03 101.33 53.47 100.69 52.62C100.21 52 99.68 51.24 99.46 50.94C99.41 50.9 99.38 50.88 99.31 50.88L97.93 50.85C97.87 50.85 97.85 50.89 97.85 50.94V51.22C97.85 52.31 97.85 53.2 97.9 53.68C97.94 54.01 98.01 54.26 98.34 54.3C98.5 54.32 98.75 54.35 98.85 54.35C98.92 54.35 98.94 54.38 98.94 54.42C98.94 54.47 98.88 54.51 98.76 54.51C98.14 54.51 97.43 54.47 97.37 54.47C97.36 54.47 96.65 54.51 96.32 54.51C96.19 54.51 96.13 54.48 96.13 54.42C96.13 54.38 96.16 54.35 96.23 54.35C96.33 54.35 96.46 54.32 96.56 54.3C96.79 54.26 96.84 54.01 96.89 53.68C96.95 53.2 96.95 52.31 96.95 51.22V49.22V49.22ZM97.85 50.21C97.85 50.26 97.87 50.31 97.93 50.34C98.1 50.44 98.62 50.52 99.11 50.52C99.38 50.52 99.7 50.49 99.96 50.31C100.35 50.04 100.64 49.42 100.64 48.56C100.64 47.14 99.9 46.29 98.7 46.29C98.36 46.29 98.05 46.33 97.94 46.36C97.88 46.38 97.85 46.43 97.85 46.5V50.21H97.85Z" fill="#023053"/>
<path d="M105.18 49.22C105.18 47.45 105.18 47.13 105.16 46.77C105.14 46.38 105.05 46.2 104.67 46.12C104.59 46.1 104.45 46.1 104.35 46.09C104.27 46.08 104.2 46.07 104.2 46.02C104.2 45.95 104.26 45.93 104.38 45.93C104.64 45.93 104.94 45.93 105.66 45.96C105.73 45.96 107.97 45.96 108.24 45.95C108.48 45.94 108.69 45.92 108.75 45.88C108.82 45.85 108.84 45.84 108.88 45.84C108.91 45.84 108.92 45.88 108.92 45.94C108.92 46.02 108.85 46.16 108.83 46.47C108.82 46.64 108.81 46.86 108.79 47.15C108.78 47.27 108.74 47.35 108.7 47.35C108.63 47.35 108.61 47.29 108.61 47.2C108.61 47.05 108.58 46.91 108.55 46.82C108.47 46.56 108.23 46.45 107.74 46.4C107.55 46.38 106.32 46.37 106.19 46.37C106.15 46.37 106.12 46.4 106.12 46.48V49.62C106.12 49.7 106.14 49.73 106.19 49.73C106.34 49.73 107.73 49.73 107.98 49.71C108.29 49.68 108.43 49.65 108.55 49.51C108.6 49.44 108.64 49.4 108.68 49.4C108.71 49.4 108.74 49.42 108.74 49.49C108.74 49.56 108.68 49.75 108.65 50.13C108.61 50.48 108.61 50.74 108.6 50.9C108.59 51.01 108.57 51.07 108.52 51.07C108.46 51.07 108.44 50.98 108.44 50.89C108.44 50.78 108.43 50.67 108.4 50.57C108.36 50.4 108.22 50.24 107.81 50.19C107.51 50.16 106.39 50.14 106.2 50.14C106.15 50.14 106.12 50.17 106.12 50.22V51.21C106.12 51.6 106.11 52.92 106.12 53.15C106.15 53.62 106.22 53.87 106.5 53.98C106.69 54.06 106.99 54.08 107.43 54.08C107.77 54.08 108.14 54.07 108.45 53.98C108.81 53.87 108.93 53.63 109.02 53.14C109.04 53.02 109.06 52.97 109.12 52.97C109.19 52.97 109.19 53.06 109.19 53.14C109.19 53.23 109.1 54 109.05 54.24C108.97 54.54 108.88 54.54 108.44 54.54C107.6 54.54 107.23 54.52 106.79 54.5C106.34 54.49 105.82 54.47 105.38 54.47C105.11 54.47 104.84 54.52 104.55 54.5C104.43 54.5 104.37 54.48 104.37 54.41C104.37 54.38 104.43 54.36 104.49 54.34C104.61 54.33 104.67 54.33 104.75 54.31C104.99 54.25 105.13 54.1 105.16 53.24C105.17 52.8 105.18 52.22 105.18 51.21V49.22H105.18Z" fill="#023053"/>
<path d="M111.42 51.16C111.42 47.06 111.44 48.54 111.43 46.34C111.43 45.9 111.47 45.77 111.56 45.77C111.64 45.77 111.84 46.02 111.95 46.13C112.12 46.33 113.8 48.15 115.53 50.02C116.65 51.23 117.87 52.61 118.24 52.98L118.11 47.22C118.1 46.49 118.02 46.24 117.67 46.15C117.47 46.1 117.29 46.09 117.19 46.09C117.06 46.09 117.03 46.06 117.03 46.01C117.03 45.94 117.12 45.93 117.26 45.93C117.76 45.93 118.31 45.96 118.43 45.96C118.55 45.96 118.92 45.93 119.39 45.93C119.51 45.93 119.59 45.94 119.59 46.01C119.59 46.06 119.54 46.08 119.47 46.09C119.37 46.1 119.31 46.11 119.17 46.14C118.86 46.2 118.78 46.37 118.78 47.16L118.75 53.78C118.75 54.53 118.73 54.59 118.65 54.59C118.56 54.59 118.43 54.46 117.83 53.86C117.71 53.75 116.08 52.08 114.89 50.79C113.58 49.37 112.31 47.94 111.95 47.53L112.09 52.96C112.12 53.9 112.23 54.19 112.53 54.28C112.75 54.34 113 54.35 113.1 54.35C113.15 54.35 113.19 54.37 113.19 54.42C113.19 54.49 113.12 54.51 112.98 54.51C112.34 54.51 111.89 54.48 111.79 54.48C111.69 54.48 111.22 54.51 110.71 54.51C110.6 54.51 110.53 54.5 110.53 54.42C110.53 54.37 110.56 54.35 110.62 54.35C110.71 54.35 110.91 54.34 111.08 54.28C111.36 54.2 111.42 53.87 111.42 52.84V51.16H111.42Z" fill="#023053"/>
<path d="M121.29 54.36C121.13 54.28 121.12 54.23 121.12 53.93C121.12 53.36 121.16 52.9 121.18 52.72C121.19 52.6 121.21 52.54 121.27 52.54C121.33 52.54 121.35 52.58 121.35 52.67C121.35 52.77 121.35 52.93 121.38 53.09C121.55 53.93 122.29 54.24 123.05 54.24C124.13 54.24 124.66 53.46 124.66 52.74C124.66 51.95 124.33 51.5 123.36 50.7L122.86 50.28C121.66 49.29 121.39 48.59 121.39 47.81C121.39 46.6 122.29 45.77 123.72 45.77C124.16 45.77 124.49 45.82 124.77 45.89C124.98 45.93 125.07 45.94 125.17 45.94C125.25 45.94 125.28 45.97 125.28 46.02C125.28 46.08 125.23 46.46 125.23 47.23C125.23 47.41 125.21 47.49 125.15 47.49C125.08 47.49 125.07 47.43 125.06 47.34C125.05 47.2 124.98 46.9 124.92 46.77C124.85 46.65 124.55 46.17 123.51 46.17C122.73 46.17 122.12 46.66 122.12 47.49C122.12 48.13 122.42 48.54 123.5 49.39L123.81 49.64C125.14 50.7 125.46 51.4 125.46 52.31C125.46 52.77 125.28 53.63 124.5 54.19C124.02 54.53 123.41 54.66 122.8 54.66C122.27 54.66 121.75 54.58 121.29 54.36H121.29Z" fill="#023053"/>
<path d="M128.93 51.16C128.87 51.16 128.84 51.19 128.81 51.25L128.14 53.26C128.04 53.54 127.98 53.81 127.98 54.02C127.98 54.24 128.19 54.35 128.39 54.35H128.49C128.6 54.35 128.63 54.37 128.63 54.42C128.63 54.48 128.53 54.51 128.43 54.51C128.16 54.51 127.71 54.47 127.59 54.47C127.46 54.47 126.84 54.51 126.31 54.51C126.17 54.51 126.1 54.48 126.1 54.42C126.1 54.37 126.16 54.35 126.26 54.35C126.34 54.35 126.44 54.34 126.53 54.32C127.05 54.26 127.27 53.82 127.47 53.26L130.03 46.22C130.16 45.84 130.21 45.77 130.28 45.77C130.34 45.77 130.39 45.83 130.52 46.18C130.69 46.61 132.46 51.3 133.15 53.02C133.56 54.03 133.88 54.21 134.12 54.28C134.29 54.34 134.47 54.35 134.56 54.35C134.62 54.35 134.68 54.36 134.68 54.42C134.68 54.49 134.58 54.51 134.46 54.51C134.28 54.51 133.47 54.51 132.69 54.49C132.47 54.48 132.35 54.48 132.35 54.41C132.35 54.36 132.38 54.34 132.43 54.33C132.5 54.31 132.56 54.2 132.5 54.02L131.45 51.23C131.43 51.19 131.4 51.16 131.35 51.16H128.93V51.16ZM131.2 50.75C131.26 50.75 131.26 50.72 131.24 50.67L130.17 47.61C130.12 47.44 130.06 47.44 130 47.61L129.01 50.67C128.99 50.73 129.01 50.75 129.05 50.75H131.2H131.2Z" fill="#023053"/>
<path d="M68.46 21.11C68.27 21.02 68.26 20.97 68.26 20.61C68.26 19.96 68.31 19.43 68.33 19.22C68.34 19.08 68.37 19.02 68.43 19.02C68.51 19.02 68.52 19.06 68.52 19.16C68.52 19.28 68.52 19.46 68.56 19.64C68.76 20.61 69.61 20.98 70.49 20.98C71.73 20.98 72.35 20.08 72.35 19.24C72.35 18.33 71.97 17.81 70.85 16.88L70.26 16.39C68.88 15.26 68.57 14.44 68.57 13.55C68.57 12.15 69.61 11.19 71.26 11.19C71.77 11.19 72.15 11.25 72.47 11.32C72.72 11.38 72.83 11.39 72.93 11.39C73.03 11.39 73.06 11.42 73.06 11.48C73.06 11.54 73.01 11.98 73.01 12.87C73.01 13.08 72.98 13.17 72.92 13.17C72.84 13.17 72.83 13.11 72.81 13C72.8 12.84 72.72 12.49 72.64 12.34C72.57 12.2 72.21 11.65 71.01 11.65C70.12 11.65 69.41 12.21 69.41 13.17C69.41 13.91 69.75 14.39 71 15.37L71.37 15.66C72.9 16.88 73.26 17.69 73.26 18.74C73.26 19.28 73.06 20.27 72.16 20.91C71.6 21.31 70.9 21.46 70.19 21.46C69.58 21.46 68.98 21.37 68.45 21.11H68.46Z" fill="#023053"/>
<path d="M74.81 16.97C74.81 15.14 76.14 12.54 79.25 12.54C81.78 12.54 83.68 14.15 83.68 16.79C83.68 19.44 81.9 21.43 79.18 21.43C76.09 21.43 74.81 19.02 74.81 16.97H74.81ZM82.59 17.11C82.59 14.39 80.95 12.93 79.17 12.93C77.29 12.93 75.88 14.17 75.88 16.66C75.88 19.3 77.46 21 79.48 21C80.5 21 82.59 20.41 82.59 17.11V17.11Z" fill="#023053"/>
<path d="M86.31 20.21C85.22 19.22 84.95 17.93 84.95 16.85C84.95 16.09 85.21 14.76 86.21 13.75C86.89 13.07 87.91 12.54 89.65 12.54C90.1 12.54 90.73 12.58 91.28 12.68C91.71 12.76 92.06 12.79 92.48 12.85C92.55 12.86 92.58 12.91 92.58 12.97C92.58 13.06 92.54 13.2 92.52 13.61C92.5 13.98 92.5 14.61 92.49 14.78C92.48 14.95 92.45 15.01 92.38 15.01C92.31 15.01 92.29 14.93 92.29 14.78C92.29 14.33 92.11 13.87 91.82 13.62C91.43 13.28 90.56 12.97 89.57 12.97C88.07 12.97 87.37 13.41 86.98 13.8C86.15 14.6 85.96 15.6 85.96 16.76C85.96 18.93 87.62 20.91 90.03 20.91C90.87 20.91 91.54 20.81 91.99 20.35C92.23 20.1 92.37 19.6 92.41 19.39C92.43 19.27 92.45 19.22 92.52 19.22C92.58 19.22 92.6 19.3 92.6 19.39C92.6 19.47 92.46 20.46 92.35 20.85C92.28 21.06 92.26 21.08 92.06 21.17C91.61 21.36 90.75 21.43 90.03 21.43C88.34 21.43 87.2 21.01 86.31 20.21H86.31Z" fill="#023053"/>
<path d="M94.82 15.99C94.82 14.22 94.82 13.9 94.79 13.54C94.77 13.15 94.66 12.96 94.41 12.9C94.29 12.87 94.14 12.86 94.06 12.86C94.02 12.86 93.97 12.84 93.97 12.79C93.97 12.72 94.03 12.7 94.15 12.7C94.52 12.7 95.23 12.73 95.29 12.73C95.35 12.73 96.06 12.7 96.39 12.7C96.52 12.7 96.57 12.72 96.57 12.79C96.57 12.83 96.53 12.86 96.48 12.86C96.4 12.86 96.34 12.87 96.2 12.89C95.9 12.95 95.81 13.14 95.78 13.54C95.76 13.9 95.76 14.22 95.76 15.99V17.99C95.76 19.07 95.76 19.97 95.82 20.45C95.85 20.77 95.92 21.02 96.26 21.07C96.41 21.09 96.65 21.11 96.72 21.11C96.82 21.11 96.85 21.15 96.85 21.18C96.85 21.24 96.81 21.27 96.68 21.27C96.06 21.27 95.34 21.24 95.29 21.24C95.23 21.24 94.52 21.27 94.18 21.27C94.06 21.27 94 21.25 94 21.18C94 21.15 94.02 21.11 94.13 21.11C94.19 21.11 94.32 21.1 94.42 21.08C94.64 21.04 94.71 20.77 94.76 20.45C94.81 19.97 94.81 19.07 94.81 17.99V15.99H94.82Z" fill="#023053"/>
<path d="M99.51 15.99C99.51 14.22 99.51 13.9 99.49 13.54C99.47 13.15 99.38 12.97 99.01 12.89C98.93 12.87 98.78 12.87 98.68 12.86C98.6 12.85 98.53 12.84 98.53 12.79C98.53 12.72 98.59 12.7 98.71 12.7C98.97 12.7 99.28 12.7 99.99 12.73C100.07 12.73 102.31 12.73 102.57 12.72C102.81 12.71 103.02 12.69 103.09 12.65C103.15 12.62 103.18 12.61 103.21 12.61C103.24 12.61 103.25 12.65 103.25 12.71C103.25 12.79 103.19 12.93 103.16 13.24C103.15 13.41 103.14 13.63 103.12 13.92C103.11 14.04 103.08 14.12 103.03 14.12C102.96 14.12 102.94 14.06 102.94 13.97C102.94 13.82 102.92 13.69 102.88 13.59C102.8 13.33 102.56 13.22 102.07 13.17C101.88 13.15 100.65 13.14 100.53 13.14C100.48 13.14 100.46 13.17 100.46 13.25V16.39C100.46 16.47 100.47 16.5 100.53 16.5C100.67 16.5 102.06 16.5 102.32 16.48C102.62 16.46 102.77 16.42 102.88 16.28C102.94 16.22 102.97 16.17 103.01 16.17C103.05 16.17 103.07 16.19 103.07 16.26C103.07 16.33 103.01 16.52 102.98 16.9C102.95 17.25 102.95 17.51 102.94 17.67C102.92 17.78 102.9 17.84 102.86 17.84C102.79 17.84 102.78 17.75 102.78 17.66C102.78 17.55 102.77 17.44 102.73 17.34C102.69 17.17 102.55 17.01 102.15 16.96C101.84 16.93 100.73 16.91 100.54 16.91C100.48 16.91 100.46 16.94 100.46 16.99V17.99C100.46 18.37 100.45 19.69 100.46 19.92C100.48 20.39 100.55 20.64 100.83 20.75C101.02 20.83 101.33 20.85 101.77 20.85C102.1 20.85 102.47 20.84 102.78 20.75C103.14 20.64 103.27 20.4 103.35 19.91C103.38 19.79 103.4 19.74 103.45 19.74C103.52 19.74 103.52 19.83 103.52 19.91C103.52 20 103.43 20.77 103.38 21.01C103.3 21.31 103.21 21.31 102.77 21.31C101.93 21.31 101.56 21.29 101.12 21.27C100.67 21.26 100.15 21.24 99.72 21.24C99.44 21.24 99.18 21.29 98.88 21.27C98.76 21.27 98.7 21.25 98.7 21.18C98.7 21.15 98.76 21.13 98.82 21.11C98.94 21.1 99.01 21.1 99.08 21.08C99.32 21.02 99.47 20.87 99.49 20.02C99.5 19.57 99.51 18.99 99.51 17.99V15.99H99.51Z" fill="#023053"/>
<path d="M105.88 15.99C105.88 14.22 105.88 13.9 105.85 13.54C105.83 13.15 105.77 12.97 105.4 12.89C105.31 12.87 105.12 12.86 105.02 12.86C104.94 12.86 104.9 12.84 104.9 12.79C104.9 12.72 104.95 12.7 105.08 12.7C105.58 12.7 106.3 12.73 106.35 12.73C106.48 12.73 107.19 12.7 107.87 12.7C108.99 12.7 111.05 12.6 112.39 13.99C112.95 14.58 113.48 15.52 113.48 16.87C113.48 18.3 112.89 19.4 112.26 20.07C111.78 20.58 110.76 21.37 108.85 21.37C108.36 21.37 107.77 21.34 107.28 21.31C106.79 21.27 106.41 21.24 106.35 21.24C106.33 21.24 106.13 21.24 105.9 21.25C105.67 21.25 105.41 21.27 105.25 21.27C105.12 21.27 105.06 21.25 105.06 21.18C105.06 21.15 105.09 21.11 105.18 21.11C105.3 21.1 105.39 21.09 105.49 21.07C105.72 21.02 105.77 20.77 105.82 20.44C105.88 19.97 105.88 19.07 105.88 17.98V15.98V15.99ZM106.82 17.21C106.82 18.42 106.83 19.46 106.84 19.68C106.86 19.96 106.88 20.41 106.97 20.54C107.11 20.75 107.55 20.99 108.88 20.99C109.93 20.99 110.9 20.6 111.56 19.94C112.15 19.36 112.47 18.27 112.47 17.22C112.47 15.78 111.85 14.85 111.39 14.37C110.33 13.24 109.04 13.08 107.7 13.08C107.48 13.08 107.06 13.12 106.97 13.16C106.87 13.21 106.83 13.27 106.83 13.39C106.82 13.78 106.82 14.93 106.82 15.81V17.21L106.82 17.21Z" fill="#023053"/>
<path d="M116.46 17.93C116.41 17.93 116.37 17.96 116.35 18.02L115.68 20.03C115.58 20.31 115.52 20.58 115.52 20.79C115.52 21.01 115.73 21.11 115.93 21.11H116.03C116.14 21.11 116.17 21.14 116.17 21.18C116.17 21.25 116.07 21.27 115.97 21.27C115.7 21.27 115.25 21.24 115.12 21.24C115 21.24 114.38 21.27 113.85 21.27C113.71 21.27 113.64 21.25 113.64 21.18C113.64 21.14 113.7 21.11 113.8 21.11C113.88 21.11 113.98 21.1 114.07 21.09C114.58 21.02 114.81 20.59 115.01 20.03L117.57 12.98C117.7 12.61 117.75 12.54 117.82 12.54C117.88 12.54 117.93 12.6 118.06 12.95C118.23 13.38 120 18.07 120.69 19.79C121.09 20.8 121.42 20.98 121.66 21.05C121.83 21.11 122 21.12 122.1 21.12C122.16 21.12 122.22 21.13 122.22 21.19C122.22 21.26 122.12 21.28 121.99 21.28C121.82 21.28 121 21.28 120.22 21.26C120.01 21.25 119.89 21.25 119.89 21.18C119.89 21.13 119.92 21.11 119.97 21.1C120.03 21.07 120.1 20.97 120.03 20.79L118.99 18C118.97 17.96 118.94 17.93 118.89 17.93H116.46V17.93ZM118.74 17.52C118.8 17.52 118.8 17.49 118.78 17.44L117.72 14.38C117.66 14.21 117.6 14.21 117.55 14.38L116.56 17.44C116.53 17.49 116.56 17.52 116.59 17.52H118.74H118.74Z" fill="#023053"/>
<path d="M123.57 15.99C123.57 14.22 123.57 13.9 123.55 13.54C123.53 13.15 123.47 12.97 123.1 12.89C123.01 12.87 122.82 12.86 122.72 12.86C122.64 12.86 122.59 12.84 122.59 12.79C122.59 12.72 122.65 12.7 122.77 12.7C123.28 12.7 123.99 12.73 124.05 12.73C124.18 12.73 124.89 12.7 125.56 12.7C126.68 12.7 128.74 12.6 130.08 13.99C130.65 14.58 131.17 15.52 131.17 16.87C131.17 18.3 130.59 19.4 129.96 20.07C129.47 20.58 128.46 21.37 126.55 21.37C126.06 21.37 125.46 21.34 124.98 21.31C124.48 21.27 124.1 21.24 124.04 21.24C124.02 21.24 123.83 21.24 123.59 21.25C123.37 21.25 123.11 21.27 122.94 21.27C122.82 21.27 122.76 21.25 122.76 21.18C122.76 21.15 122.78 21.11 122.87 21.11C123 21.1 123.09 21.09 123.19 21.07C123.41 21.02 123.47 20.77 123.51 20.44C123.57 19.97 123.57 19.07 123.57 17.98V15.98V15.99ZM124.52 17.21C124.52 18.42 124.53 19.46 124.54 19.68C124.55 19.96 124.57 20.41 124.66 20.54C124.81 20.75 125.25 20.99 126.58 20.99C127.62 20.99 128.59 20.6 129.26 19.94C129.85 19.36 130.16 18.27 130.16 17.22C130.16 15.78 129.54 14.85 129.08 14.37C128.02 13.24 126.74 13.08 125.4 13.08C125.17 13.08 124.76 13.12 124.67 13.16C124.56 13.21 124.53 13.27 124.53 13.39C124.52 13.78 124.52 14.93 124.52 15.81V17.21L124.52 17.21Z" fill="#023053"/>
</g>
<defs>
<clipPath id="clip0_5326_31384">
<rect width="179" height="65" fill="white"/>
</clipPath>
</defs>
</svg>
